<svg id="Layer_1" data-name="Layer 1" xmlns="http://www.w3.org/2000/svg" viewBox="0 0 522 126"><defs><style>.cls-1{fill:#b2a268;}.cls-2{fill:#143156;}</style></defs><path class="cls-1" d="M76.22,11.73a51.27,51.27,0,1,0,0,102.54,51.27,51.27,0,0,0,36.25-87.53,50.94,50.94,0,0,0-36.25-15Zm0,105.2A53.93,53.93,0,0,1,38.08,24.86a53.94,53.94,0,1,1,38.14,92.07Z"/><path class="cls-1" d="M76.22,13.89A49.1,49.1,0,1,0,111,28.27,48.82,48.82,0,0,0,76.22,13.89Zm0,98.76a49.64,49.64,0,1,1,35.11-14.54,49.37,49.37,0,0,1-35.11,14.54Z"/><path class="cls-1" d="M113,67.59c-.08.65-.17,1.3-.29,1.94l-1.94.73c-.11.51-.22,1-.35,1.52l1.41,1.52c-.18.63-.37,1.25-.59,1.86l-2,.42c-.18.49-.38,1-.59,1.45l1.17,1.72c-.28.59-.57,1.17-.88,1.75l-2.08.09c-.26.45-.53.9-.8,1.34l.87,1.88q-.54.81-1.14,1.59l-2.06-.23c-.33.4-.66.8-1,1.19l.57,2c-.45.48-.91,1-1.38,1.4l-2-.55q-.59.52-1.17,1L99,92.28c-.51.4-1,.79-1.58,1.17l-1.89-.86c-.43.29-.87.56-1.32.83l-.07,2.07c-.57.32-1.15.62-1.73.9l-1.74-1.14c-.48.22-1,.42-1.44.61l-.39,2c-.62.22-1.23.43-1.86.62l-1.53-1.4c-.51.13-1,.26-1.52.37l-.71,2c-.64.12-1.28.23-1.93.32L80,98.14c-.51,0-1,.1-1.55.13l-1,1.82-1,0h-1l-1-1.81c-.52,0-1-.06-1.55-.1l-1.28,1.63c-.65-.08-1.3-.17-1.94-.29L69,97.59c-.51-.11-1-.22-1.52-.35l-1.52,1.42c-.63-.18-1.25-.38-1.86-.59l-.42-2c-.49-.18-1-.38-1.45-.59l-1.72,1.17c-.59-.28-1.17-.57-1.75-.88l-.09-2.08c-.46-.26-.9-.52-1.34-.8l-1.88.88c-.54-.37-1.07-.75-1.59-1.15l.23-2.06c-.41-.33-.8-.66-1.19-1l-2,.57c-.47-.44-.94-.9-1.39-1.38l.55-2q-.52-.57-1-1.17l-2.06.25c-.4-.51-.79-1-1.17-1.58l.86-1.89c-.29-.43-.56-.87-.83-1.32l-2.08-.07c-.31-.57-.61-1.15-.89-1.73L44,77.46c-.22-.47-.42-.95-.61-1.44l-2-.39c-.22-.61-.43-1.23-.62-1.86l1.4-1.53c-.13-.5-.26-1-.37-1.52L39.78,70c-.13-.64-.23-1.28-.32-1.93l1.62-1.3c0-.51-.1-1-.13-1.55l-1.82-1c0-.33,0-.65,0-1s0-.66,0-1l1.8-1c0-.52.06-1,.11-1.55l-1.64-1.28c.08-.65.18-1.3.3-1.94l1.94-.73c.1-.51.22-1,.35-1.52L40.56,52.7c.18-.63.38-1.25.59-1.86l2-.42c.18-.49.38-1,.59-1.45l-1.17-1.72c.28-.59.57-1.17.88-1.75l2.08-.09c.25-.45.52-.9.8-1.34l-.88-1.88c.37-.54.75-1.07,1.15-1.59l2.06.23c.32-.4.66-.8,1-1.19l-.57-2c.44-.48.9-.95,1.37-1.4l2,.55q.57-.52,1.17-1l-.25-2.06c.51-.4,1-.79,1.57-1.17l1.89.86c.44-.29.88-.56,1.33-.83l.07-2.07c.57-.32,1.14-.62,1.73-.9l1.74,1.14c.47-.22,1-.42,1.44-.61l.39-2c.61-.22,1.23-.43,1.86-.62L67,28.88c.5-.13,1-.26,1.52-.37l.71-2c.63-.12,1.28-.23,1.93-.32l1.3,1.62c.51-.05,1-.1,1.54-.13l1-1.82,1,0h1l1,1.8,1.55.11,1.28-1.63c.65.08,1.29.17,1.93.29l.74,1.94c.51.11,1,.22,1.52.35l1.52-1.42c.62.18,1.24.38,1.86.59l.42,2c.49.18,1,.38,1.45.59L92,29.39c.59.28,1.17.57,1.74.88l.1,2.08c.45.26.9.52,1.34.8L97,32.27c.55.37,1.08.75,1.6,1.15l-.23,2.06c.4.33.8.66,1.19,1l2-.57c.48.44,1,.9,1.4,1.38l-.55,2q.52.57,1,1.17l2.06-.25c.4.51.79,1,1.16,1.58l-.85,1.89c.28.43.56.87.82,1.32l2.08.07c.32.57.62,1.15.9,1.73l-1.14,1.74c.21.47.42,1,.61,1.44l2,.39c.22.61.42,1.23.61,1.86l-1.39,1.53c.13.5.26,1,.37,1.52l2,.71c.12.63.23,1.28.32,1.93l-1.62,1.3c0,.51.09,1,.13,1.55l1.81,1c0,.33,0,.65,0,1s0,.66,0,1l-1.81,1c0,.52-.06,1-.11,1.55L113,67.59Zm-36.82-44A39.37,39.37,0,1,0,115.59,63,39.37,39.37,0,0,0,76.22,23.63Z"/><path class="cls-1" d="M78.29,38.2a4.22,4.22,0,0,1-1,1H75.36c1.3-1.51,2.18-2.53,1.26-4.55C75,31.09,75.79,29,75.79,29A8.34,8.34,0,0,0,77,32.1a7.92,7.92,0,0,0,1,1.45,4,4,0,0,1,.31,4.65ZM75,38.35a3.32,3.32,0,0,1-1.37-2.76A7.64,7.64,0,0,1,75,32.27,11,11,0,0,0,76,35.36c.8,1.48-.94,3-.94,3Zm4.63-2.93c-.15-1.55-1.25-2.54-1.93-3.8-1.18-2.15-1-2.92-1-2.92s.09-.9-.6-.9-.9.62-1.06,1a8.51,8.51,0,0,0-.51,2.14c-.16,1.55-1.44,2.1-1.78,4.43,0,0-.22,2.61,1.35,3.86h4.27a4.73,4.73,0,0,0,1.3-3.78Z"/><path class="cls-1" d="M74,91a.58.58,0,0,0,.45-.18.6.6,0,0,0,.18-.44.61.61,0,0,0-.18-.45.58.58,0,0,0-.45-.18.57.57,0,0,0-.44.18.61.61,0,0,0-.18.45.6.6,0,0,0,.18.44A.57.57,0,0,0,74,91Z"/><path class="cls-1" d="M74,91.64a.67.67,0,0,0-.52.21.82.82,0,0,0,0,1.07.67.67,0,0,0,.52.21.69.69,0,0,0,.53-.21.82.82,0,0,0,0-1.07.69.69,0,0,0-.53-.21Z"/><path class="cls-1" d="M78,91a.61.61,0,0,0,.45-.18.64.64,0,0,0,.17-.44.64.64,0,0,0-.17-.45.61.61,0,0,0-.45-.18.58.58,0,0,0-.45.18.6.6,0,0,0-.17.45.6.6,0,0,0,.17.44A.58.58,0,0,0,78,91Z"/><path class="cls-1" d="M78,91.64a.69.69,0,0,0-.53.21.82.82,0,0,0,0,1.07.69.69,0,0,0,.53.21.69.69,0,0,0,.52-.21.72.72,0,0,0,.2-.53.72.72,0,0,0-.2-.54.69.69,0,0,0-.52-.21Z"/><path class="cls-1" d="M84.61,83.43v2.66H77.86v-16c1.73-.25,4.19-1.16,6.58-4.38a.71.71,0,0,0,.45.52,1.17,1.17,0,0,0,.21.68c0,.15,0,.37,0,.58a3.54,3.54,0,0,0,0,3.45V76c-.48,0-.94.53-1.4,1.47-.56,1.14-.85,2.26,1.34,4.31l.06.06v.09a2.15,2.15,0,0,1-.54,1.51Zm-1.46,9.51a1.11,1.11,0,0,1-.5.64,1.66,1.66,0,0,1-.89.23,2,2,0,0,1-1.19-.31.12.12,0,0,1,0-.11v-.84s0-.07.06-.07h.59a.06.06,0,0,1,.07.07V93a.06.06,0,0,0,0,.06,1,1,0,0,0,.5.11.6.6,0,0,0,.64-.41,1.52,1.52,0,0,0,.07-.5,1.69,1.69,0,0,0-.06-.51.62.62,0,0,0-1.12-.06.09.09,0,0,1-.09.07h-.56c-.05,0-.07,0-.07-.07V89.17a.06.06,0,0,1,.07-.07h2.43a.06.06,0,0,1,.07.07v.55s0,.06-.07.06H81.32s0,0,0,0v1h0a1.05,1.05,0,0,1,.69-.21,1.09,1.09,0,0,1,1.16.76,3.08,3.08,0,0,1,.1.81,2.06,2.06,0,0,1-.1.71ZM79,93.43a1.69,1.69,0,0,1-2.15,0,1.39,1.39,0,0,1-.25-1.66,1.13,1.13,0,0,1,.41-.45h0a1.12,1.12,0,0,1-.33-.38,1.1,1.1,0,0,1-.14-.57,1.3,1.3,0,0,1,.37-.94,1.56,1.56,0,0,1,2,0,1.3,1.3,0,0,1,.37.94,1.2,1.2,0,0,1-.14.57,1,1,0,0,1-.34.38h0a1.15,1.15,0,0,1,.42.45,1.29,1.29,0,0,1,.16.66,1.32,1.32,0,0,1-.42,1ZM76.2,69.28c-1.5,0-5.41,0-8.86-6.21h1a12.3,12.3,0,0,0,15.82,0h1c-3.45,6.21-7.36,6.21-8.86,6.21ZM75.08,93.43a1.56,1.56,0,0,1-1.08.38,1.52,1.52,0,0,1-1.07-.39,1.42,1.42,0,0,1-.26-1.66,1.15,1.15,0,0,1,.42-.45h0a1.15,1.15,0,0,1-.34-.38,1.2,1.2,0,0,1-.14-.57,1.31,1.31,0,0,1,.38-.94A1.36,1.36,0,0,1,74,89a1.38,1.38,0,0,1,1,.38,1.31,1.31,0,0,1,.38.94,1.2,1.2,0,0,1-.14.57,1.15,1.15,0,0,1-.34.38h0a1.15,1.15,0,0,1,.42.45,1.29,1.29,0,0,1,.16.66,1.32,1.32,0,0,1-.42,1Zm-3.52.24a.06.06,0,0,1-.07.07H69.16a.06.06,0,0,1-.07-.07v-.53s0-.07.07-.07h.75a0,0,0,0,0,0,0V90h0l-.78.49s-.08,0-.08,0v-.69a.14.14,0,0,1,0-.1l.81-.54a.21.21,0,0,1,.12,0h.58s.06,0,.06.07V93a0,0,0,0,0,0,0h.74c.05,0,.07,0,.07.07v.53Zm-3.74-7.6h0V83.44a2.16,2.16,0,0,1-.54-1.51v-.19c2.24-2.14,1.34-4.19,1.29-4.29-.25-.5-.74-1.28-1.29-1.44V71.62l.24-.19c.07-.05,1.58-1.29-.22-4.14a3.88,3.88,0,0,1,0-.4,1.2,1.2,0,0,0,.21-.69.73.73,0,0,0,.44-.49c2.39,3.21,4.86,4.11,6.59,4.36v16H67.83v0ZM67,70.74a8.69,8.69,0,0,0-3.08,3.77A3.92,3.92,0,0,1,63.42,72c.15-1.87,2.24-3.68,3.09-4.34,1.37,2.12.55,3,.46,3Zm-.34,10.39h0a4.26,4.26,0,0,1-3.72,1.06,11.92,11.92,0,0,0-5.26.19A8.07,8.07,0,0,1,60.74,81l1.34-.29-1.26-.55a8.47,8.47,0,0,0-2.56-.4c.78-.86,1.52-1,3.68-.93s4.92-.08,5.25-1.66c0-.06,0-.12,0-.16a4.85,4.85,0,0,1,.55.82c.06.14.61,1.63-1.15,3.29ZM58.37,49.9a48.52,48.52,0,0,0,9.4,2.49,13.61,13.61,0,0,1,16.9,0,48.54,48.54,0,0,0,9.39-2.49A39.75,39.75,0,0,1,90.19,78c-.74,0-1.36,0-1.87,0V76l.38-.28c.13-.09,1.27-1,1.1-3.75a6.65,6.65,0,0,0-1.48-3.38v-.65c0-.27,0-.79.06-1.06a1.17,1.17,0,0,0,.21-.68c.38-.11.51-.6.56-1.14.09-.1.19-.24.32-.37h.78a.6.6,0,0,0,.27-.53V62.74a.11.11,0,0,1,0-.08c.16,0,.28-.18.28-.35v-.13H61.57v.13c0,.32.38.38.38.43v1.42a.64.64,0,0,0,.3.53H63c.12.13.23.27.32.38,0,.53.18,1,.56,1.13a1.2,1.2,0,0,0,.21.69c0,.27,0,.78,0,1v.8A6,6,0,0,0,62.54,72c-.22,2.82,1.24,3.75,1.31,3.78l.25.16v2a16.71,16.71,0,0,1-1.85.06A39.83,39.83,0,0,1,58.37,49.9Zm32,28.94c2.16,0,2.9.07,3.68.93a8.47,8.47,0,0,0-2.56.4l-1.26.55,1.34.29a8.07,8.07,0,0,1,3.09,1.38A16.3,16.3,0,0,0,91.29,82a6.66,6.66,0,0,0-1.87.23,4.25,4.25,0,0,1-3.72-1.06h0c-1.89-1.77-1.53-2.51-1.15-3.28a4.09,4.09,0,0,1,.54-.87c0,.06,0,.12,0,.2.33,1.58,3,1.72,5.25,1.66Zm-4.27-8.07a2.68,2.68,0,0,1,0-3.29c.81.76,2.67,2.69,2.79,4.54a5.09,5.09,0,0,1-.3,2.32,8.73,8.73,0,0,0-2.49-3.57Zm9.45,11.29a47.28,47.28,0,0,0,3.16-39.73c-.82-1.92-2.37-4.67-5.2-4.65a2.78,2.78,0,0,0-.15,5.56h0a.1.1,0,0,1,.08.17,14.74,14.74,0,0,1-7.13,2.87c-7,1.11-8-2.51-8-3,.3-.07.85-.28.83-.75s-.14-.48-.44-.55h-.44a1.43,1.43,0,0,1,.6-1.18,6.13,6.13,0,0,1,.79-.41c.3-.07.41-.41.44-.76s-.14-.48-.44-.55H72.83c-.3.07-.41.19-.44.55s.14.69.44.76a6,6,0,0,1,.8.41A1.44,1.44,0,0,1,74.22,42h-.44c-.3.07-.41.19-.44.55s.51.67.82.75c-.1.48-1.07,4.12-8,3A14.69,14.69,0,0,1,59,43.42a.1.1,0,0,1,.07-.17h0a2.78,2.78,0,0,0-.14-5.56c-2.84,0-4.39,2.73-5.2,4.65A47.23,47.23,0,0,0,56.82,82a1.92,1.92,0,0,0-.48,1l-.08.67.64-.19.7-.18c3.89,6.44,9.8,13,18.62,19.05,8.8-6.07,14.71-12.59,18.61-19l.6.16.64.19L96,83a1.9,1.9,0,0,0-.43-1Z"/><path class="cls-1" d="M76.24,52.84a8.78,8.78,0,0,1,9,8.3c.54,0,1.7,0,2.83,0-.25-6.19-5.28-10.8-11.87-10.8s-11.6,4.6-11.84,10.78l2.88,0a8.77,8.77,0,0,1,9-8.25Z"/><path class="cls-1" d="M29.89,61.7a2.29,2.29,0,0,1,.14-.78,1.45,1.45,0,0,1,.33-.59.11.11,0,0,1,.09,0l.8,0s.06,0,.06.07V61a.06.06,0,0,1-.07.07h-.39l-.06,0a1.28,1.28,0,0,0-.19.69.89.89,0,0,0,.58.95,3.85,3.85,0,0,0,1,.13,3.74,3.74,0,0,0,1-.07.83.83,0,0,0,.44-.3,1,1,0,0,0,.17-.6,1.45,1.45,0,0,0-.14-.74.13.13,0,0,0-.11-.07l-.88,0s0,0,0,0l0,.71s0,.07-.07.07l-.53,0a.05.05,0,0,1-.06-.06l0-1.45s0-.06.07-.06l1.9,0a.18.18,0,0,1,.16.09,2.54,2.54,0,0,1,.39,1.5,1.55,1.55,0,0,1-1.09,1.65,4.5,4.5,0,0,1-1.27.08,4.29,4.29,0,0,1-1.24-.15,1.61,1.61,0,0,1-1.05-1.76Z"/><path class="cls-1" d="M30.16,58.37l.38-3.18s0-.06.07-.06l1,.12a.06.06,0,0,1,.05.08l-.06.56s0,.07-.08.06l-.36,0s0,0,0,0L31,57.28s0,0,0,0l1.11.14a0,0,0,0,0,0,0l.11-.9s0,0,0,0l-.23,0s-.07,0-.06-.08l.06-.54s0-.07.08-.06l1.24.15a.05.05,0,0,1,.05.07l-.06.55a.07.07,0,0,1-.08.06l-.23,0s0,0,0,0l-.1.9s0,0,0,0l1.16.14s0,0,0,0l.16-1.33s0,0,0,0l-.4-.05a.05.05,0,0,1,0-.07l.06-.57a.06.06,0,0,1,.08,0l1.05.12s.06,0,.06.08l-.38,3.18a.07.07,0,0,1-.08.06l-.51-.07s-.06,0-.06-.07l0-.32s0,0,0,0l-3.11-.37s0,0-.05,0l0,.32a.05.05,0,0,1-.07,0l-.51-.06s-.07,0-.06-.07Z"/><path class="cls-1" d="M32,51.7a.81.81,0,0,0,.37.95,4.54,4.54,0,0,0,1,.33,3.63,3.63,0,0,0,1,.17.8.8,0,0,0,.77-.66.81.81,0,0,0-.37-1,3.38,3.38,0,0,0-1-.33,4.25,4.25,0,0,0-1-.18.81.81,0,0,0-.78.68Zm-.68-.18a1.77,1.77,0,0,1,.51-.91,1.49,1.49,0,0,1,.93-.37,4.43,4.43,0,0,1,1.23.18,4.93,4.93,0,0,1,1.18.42,1.53,1.53,0,0,1,.64.77,1.77,1.77,0,0,1,0,1,1.67,1.67,0,0,1-.51.9,1.5,1.5,0,0,1-.93.38,4.55,4.55,0,0,1-1.23-.19,4.31,4.31,0,0,1-1.18-.42,1.52,1.52,0,0,1-.64-.76,1.78,1.78,0,0,1,0-1Z"/><path class="cls-1" d="M33.7,46.38l-.32.85s0,.05,0,.06l1.11.42s0,0,.05,0l.32-.85a.65.65,0,0,0,0-.53A.65.65,0,0,0,34,46a.71.71,0,0,0-.34.41ZM32.32,48.1l.75-2a1.54,1.54,0,0,1,.71-.87,1.39,1.39,0,0,1,1.66.47,1.27,1.27,0,0,1,.21.78l1.41-.11s0,0,0,0l.11-.27s0-.06.08,0l.49.18s.05,0,0,.09l-.28.76a.11.11,0,0,1-.1.07l-2,.15-.25.64s0,0,0,0l1.08.41s0,0,.05,0l.11-.3s0-.05.09,0l.48.19s0,0,0,.08l-.53,1.41a.06.06,0,0,1-.09,0L36,49.55s-.06,0,0-.09l.11-.29s0,0,0-.05L33.09,48s0,0-.05,0l-.11.3a.07.07,0,0,1-.09,0l-.48-.19a.05.05,0,0,1,0-.08Z"/><path class="cls-1" d="M35.15,41.35a2.59,2.59,0,0,1,.47-.64,1.68,1.68,0,0,1,.56-.39.09.09,0,0,1,.1,0l.71.37a.06.06,0,0,1,0,.09l-.28.53a.05.05,0,0,1-.09,0l-.34-.18h-.06a1.28,1.28,0,0,0-.48.54.88.88,0,0,0,.1,1.11,3.8,3.8,0,0,0,.87.57,3.72,3.72,0,0,0,.95.39.84.84,0,0,0,.53-.07,1,1,0,0,0,.42-.47,1.36,1.36,0,0,0,.19-.73.11.11,0,0,0-.06-.11L38,42s0,0-.06,0l-.33.64a.06.06,0,0,1-.09,0L37,42.41a.06.06,0,0,1,0-.09L37.68,41a.06.06,0,0,1,.09,0l1.69.88a.18.18,0,0,1,.1.15,2.43,2.43,0,0,1-.31,1.51,1.56,1.56,0,0,1-1.71,1,5,5,0,0,1-1.17-.48,4.69,4.69,0,0,1-1-.69,1.62,1.62,0,0,1-.17-2Z"/><path class="cls-1" d="M36.87,38.47l.81-1.26a.06.06,0,0,1,.09,0l.44.28a.08.08,0,0,1,0,.1l-.18.26s0,0,0,.06l2.63,1.69s0,0,0,0l.18-.27s0,0,.09,0l.43.28a.05.05,0,0,1,0,.09l-.81,1.26a.05.05,0,0,1-.09,0l-.43-.28a.05.05,0,0,1,0-.09l.17-.27s0,0,0,0l-2.64-1.69s0,0,0,0l-.18.27a.06.06,0,0,1-.09,0l-.43-.28s0-.06,0-.1Z"/><path class="cls-1" d="M40.58,34.91l.89,1.38.66-.84-1.54-.56v0Zm-1-.35L40,34a.09.09,0,0,1,.11,0l3.76,1.3s0,0,.06,0l.12-.16a.06.06,0,0,1,.09,0l.41.32s0,.06,0,.1l-.84,1.06s-.05,0-.09,0l-.41-.32a.07.07,0,0,1,0-.1l.18-.22s0,0,0-.06l-.58-.2-1,1.21.34.5s0,0,.06,0l.17-.21s.06,0,.09,0l.41.31a.07.07,0,0,1,0,.1l-.83,1.06s-.06,0-.1,0l-.4-.32s0-.05,0-.09l.14-.17s0,0,0-.07l-2.14-3.35a.08.08,0,0,1,0-.11Z"/><path class="cls-1" d="M43.9,29.72l1.09-1a.06.06,0,0,1,.09,0l.36.38a.06.06,0,0,1,0,.09l-.24.22s0,0,0,.06l2.15,2.28a0,0,0,0,0,.06,0l.23-.22a.06.06,0,0,1,.09,0l.36.38a.06.06,0,0,1,0,.09L47,33s-.07,0-.1,0l-.35-.38a.06.06,0,0,1,0-.09l.23-.22a0,0,0,0,0,0-.06L44.63,30s0,0-.05,0l-.23.21s-.07,0-.1,0l-.35-.38a.06.06,0,0,1,0-.09Z"/><path class="cls-1" d="M48.36,25.9,49.48,25s.06,0,.09,0l.32.41s0,.06,0,.09l-.25.2s0,0,0,.05l2.3,3s0,.06,0,.09l-.48.37a.1.1,0,0,1-.12,0L48,27.9l0,0,1.52,2s0,0,0,0l.25-.2a.07.07,0,0,1,.1,0l.31.41s0,.07,0,.1L49,31.08s-.07,0-.09,0l-.32-.41s0-.06,0-.09l.25-.19s0,0,0-.06L47,27.84s0,0,0,0l-.26.19s-.06,0-.09,0l-.32-.41a.06.06,0,0,1,0-.09l.81-.63a.12.12,0,0,1,.13,0l3.35,1.34h0l-1.53-2s0,0-.05,0l-.25.19a.07.07,0,0,1-.1,0L48.35,26s0-.07,0-.09Z"/><path class="cls-1" d="M52.41,23.08a2.75,2.75,0,0,1,1.3-.41.07.07,0,0,1,.08,0l.46.76a.06.06,0,0,1,0,.09l-.5.3a.06.06,0,0,1-.09,0l-.21-.35a0,0,0,0,0-.06,0,1.87,1.87,0,0,0-.63.24.81.81,0,0,0-.39.42.51.51,0,0,0,.06.46.49.49,0,0,0,.37.26,1.2,1.2,0,0,0,.65-.14l.22-.1a1.32,1.32,0,0,1,1.85.45,1.29,1.29,0,0,1,.14,1.09,1.83,1.83,0,0,1-.87,1,3,3,0,0,1-1.45.45.07.07,0,0,1-.08,0l-.46-.77s0-.07,0-.1l.52-.31s.07,0,.09,0l.23.38a.05.05,0,0,0,0,0,2.3,2.3,0,0,0,.75-.28,1,1,0,0,0,.45-.46.59.59,0,0,0-.05-.53.51.51,0,0,0-.38-.26,1.24,1.24,0,0,0-.66.14l-.22.09A1.29,1.29,0,0,1,51.74,25,1.22,1.22,0,0,1,51.59,24a1.75,1.75,0,0,1,.82-.9Z"/><path class="cls-1" d="M55.27,21.54l3.24-1.49a.06.06,0,0,1,.09,0L59,21a.06.06,0,0,1,0,.09l-.52.24s-.07,0-.08,0L58.24,21s0,0-.05,0l-.62.28a0,0,0,0,0,0,.05l1.3,2.81a0,0,0,0,0,0,0l.31-.15a.07.07,0,0,1,.09,0l.22.47s0,.07,0,.08l-1.41.65a.06.06,0,0,1-.09,0l-.22-.47a.06.06,0,0,1,0-.09l.32-.14a0,0,0,0,0,0-.05l-1.3-2.81a0,0,0,0,0-.05,0l-.62.28s0,0,0,.06l.16.36a.06.06,0,0,1,0,.09l-.52.23a.06.06,0,0,1-.09,0l-.44-1a.06.06,0,0,1,0-.09Z"/><path class="cls-1" d="M60,19.49,61.4,19a.05.05,0,0,1,.08,0l.18.49s0,.07,0,.08l-.3.11s0,0,0,.05l1.06,2.95s0,0,0,0l.3-.1s.07,0,.08,0l.18.48a.07.07,0,0,1,0,.09l-1.42.5a.05.05,0,0,1-.08,0l-.18-.49s0-.07,0-.08l.31-.11s0,0,0-.05l-1-2.95a0,0,0,0,0-.06,0l-.3.11s-.07,0-.08,0L60,19.58s0-.07,0-.09Z"/><path class="cls-1" d="M62.89,18.48l3.45-.89a.05.05,0,0,1,.08,0l.27,1a.06.06,0,0,1,0,.08l-.55.15a.06.06,0,0,1-.08-.05l-.1-.39a0,0,0,0,0,0,0l-.66.17a0,0,0,0,0,0,.05l.77,3s0,0,0,0l.34-.08s.07,0,.08,0l.13.5c0,.05,0,.07,0,.09L65,22.6a.06.06,0,0,1-.08-.05l-.13-.5c0-.05,0-.07,0-.08l.34-.09a0,0,0,0,0,0-.05l-.78-3s0,0,0,0l-.65.17s0,0,0,.05l.1.38c0,.05,0,.07,0,.09l-.55.14a.06.06,0,0,1-.08-.05l-.27-1a.06.06,0,0,1,0-.08Z"/><path class="cls-1" d="M70.38,16.92l1.46-.2s.07,0,.07.06l.08.51s0,.07-.06.07l-.3,0s0,0,0,.05l.31,2.21a1.64,1.64,0,0,1-.29,1.27,1.6,1.6,0,0,1-1.13.6,1.64,1.64,0,0,1-1.24-.27,1.62,1.62,0,0,1-.62-1.14l-.31-2.22s0,0,0,0l-.3,0a.06.06,0,0,1-.08-.05l-.07-.52s0-.07.06-.07l1.46-.2a.05.05,0,0,1,.07.05l.07.51a.06.06,0,0,1,0,.08l-.31,0a0,0,0,0,0,0,.05l.3,2.2a1.05,1.05,0,0,0,.34.67A.9.9,0,0,0,71,20.5a1,1,0,0,0,.14-.74l-.3-2.2s0,0,0,0l-.3,0a.05.05,0,0,1-.07,0L70.32,17a.07.07,0,0,1,.06-.08Z"/><path class="cls-1" d="M73.4,16.61,77,16.53s.07,0,.07.06l0,1.07a.05.05,0,0,1-.06.06l-.57,0c-.05,0-.07,0-.07-.07v-.4a0,0,0,0,0,0,0l-.68,0s0,0,0,0l.07,3.09s0,0,0,0H76s.07,0,.07.07V21c0,.05,0,.07-.06.07l-1.55,0c-.05,0-.07,0-.07-.06v-.52a.07.07,0,0,1,.06-.07h.35a0,0,0,0,0,0,0l-.07-3.09s0,0,0,0h-.68a0,0,0,0,0,0,0v.4s0,.07-.06.07h-.57c-.05,0-.07,0-.07-.06l0-1.07a.05.05,0,0,1,.06-.06Z"/><path class="cls-1" d="M78.61,16.59l3.19.28s.07,0,.06.07l-.09,1s0,.06-.07.06L81.13,18a.07.07,0,0,1-.06-.07l0-.37a0,0,0,0,0,0,0l-1.34-.12s0,0,0,0l-.1,1.11s0,0,0,0l.91.08s0,0,0,0l0-.24c0-.05,0-.07.08-.06l.54.05c.05,0,.07,0,.06.07l-.1,1.24a.07.07,0,0,1-.08.06l-.55,0s-.06,0-.06-.07l0-.24a0,0,0,0,0,0,0l-.91-.08a0,0,0,0,0,0,0l-.1,1.16s0,0,0,0l1.35.12a0,0,0,0,0,0,0l0-.39c0-.05,0-.07.08-.06l.56.05s.07,0,.06.07l-.09,1.06s0,.06-.07.06l-3.19-.28s-.07,0-.06-.08l0-.51c0-.05,0-.07.07-.06l.32,0s0,0,0,0l.27-3.12s0,0,0,0l-.31,0s-.07,0-.06-.07l0-.52s0-.06.07-.06Z"/><path class="cls-1" d="M87.74,18.66a.82.82,0,0,0-.95.36,3.88,3.88,0,0,0-.34,1,4.17,4.17,0,0,0-.18,1,.81.81,0,0,0,.66.78.83.83,0,0,0,1-.36,4.2,4.2,0,0,0,.34-1,4.23,4.23,0,0,0,.18-1,.82.82,0,0,0-.67-.78Zm.18-.68a1.81,1.81,0,0,1,.91.52,1.56,1.56,0,0,1,.37.94,4.67,4.67,0,0,1-.2,1.23,4.34,4.34,0,0,1-.43,1.17,1.47,1.47,0,0,1-.77.63,1.77,1.77,0,0,1-1,0,1.75,1.75,0,0,1-.9-.52,1.55,1.55,0,0,1-.37-.93,4.62,4.62,0,0,1,.2-1.23,4.6,4.6,0,0,1,.43-1.18,1.47,1.47,0,0,1,.77-.63,1.74,1.74,0,0,1,1,0Z"/><path class="cls-1" d="M91.32,19.05l3,1.15s.05,0,0,.08l-.38,1a.06.06,0,0,1-.09,0l-.53-.2s0,0,0-.09l.14-.37s0,0,0,0l-1.26-.48s-.05,0-.05,0l-.42,1.08s0,.05,0,.05l.86.33a0,0,0,0,0,0,0l.08-.22s0-.06.09,0l.51.2c.05,0,.06,0,0,.08l-.44,1.17a.06.06,0,0,1-.09,0l-.51-.19s-.06-.05,0-.09l.08-.22s0,0,0-.05l-.85-.33a0,0,0,0,0-.06,0L91,23a0,0,0,0,0,0,0l.39.14a.06.06,0,0,1,0,.09l-.18.48s0,.06-.09,0l-1.48-.57a.05.05,0,0,1,0-.08l.18-.49a.06.06,0,0,1,.09,0l.3.11a0,0,0,0,0,.05,0l1.12-2.93a0,0,0,0,0,0-.05l-.3-.11s-.06-.05,0-.09l.19-.48a.05.05,0,0,1,.08,0Z"/><path class="cls-1" d="M98.09,22l3.08,1.8s0,.06,0,.09l-.54.92a.05.05,0,0,1-.09,0l-.49-.28s0-.06,0-.09l.2-.35s0,0,0-.05l-.58-.34s0,0-.06,0L98,26.39s0,0,0,.05l.29.18a.06.06,0,0,1,0,.09l-.26.44s-.06.05-.09,0l-1.34-.79a.06.06,0,0,1,0-.09l.26-.44s.06-.05.09,0l.3.18s0,0,.06,0l1.56-2.67s0,0,0-.05l-.59-.34s0,0,0,0l-.2.35a.08.08,0,0,1-.1,0L97.48,23s0-.05,0-.09L98,22a.06.06,0,0,1,.09,0Z"/><path class="cls-1" d="M102.53,24.71l2.57,1.91a.06.06,0,0,1,0,.09l-.62.83a.06.06,0,0,1-.09,0l-.46-.34s0-.05,0-.09l.22-.29a0,0,0,0,0,0-.06l-1.08-.8s0,0-.06,0l-.66.89s0,0,0,.05l.73.55a0,0,0,0,0,.06,0l.14-.19a.06.06,0,0,1,.09,0l.45.33a.07.07,0,0,1,0,.1l-.75,1s0,0-.09,0l-.44-.33s0-.06,0-.09l.14-.19s0,0,0-.06l-.73-.54s0,0,0,0l-.7.93s0,0,0,.06l1.08.8s0,0,0,0l.24-.31a.06.06,0,0,1,.09,0l.46.34a.07.07,0,0,1,0,.1l-.64.85s-.06,0-.09,0l-2.57-1.91a.07.07,0,0,1,0-.1l.31-.41s.06,0,.1,0l.25.19a0,0,0,0,0,.06,0l1.87-2.51s0,0,0-.06l-.26-.19s0-.06,0-.09l.31-.42s.06,0,.09,0Z"/><path class="cls-1" d="M107.91,29a2.43,2.43,0,0,1,.76,1.17.11.11,0,0,1,0,.11l-.61.65s-.06,0-.09,0l-.44-.41a.06.06,0,0,1,0-.09l.31-.34a0,0,0,0,0,0-.06,1.15,1.15,0,0,0-.34-.48,1.11,1.11,0,0,0-.55-.31.88.88,0,0,0-.53.12,3.86,3.86,0,0,0-.76.69,4.19,4.19,0,0,0-.65.81,1,1,0,0,0-.08.54,1.14,1.14,0,0,0,.36.53,1.34,1.34,0,0,0,.49.31.06.06,0,0,0,.06,0l.33-.35a.06.06,0,0,1,.09,0l.44.4s0,.06,0,.1l-.61.66a.1.1,0,0,1-.1,0,2.53,2.53,0,0,1-1.23-.68,1.49,1.49,0,0,1-.47-1.88,4.68,4.68,0,0,1,.78-1,4.57,4.57,0,0,1,.92-.82,1.52,1.52,0,0,1,1.94.3Z"/><path class="cls-1" d="M111.81,33.22l1,1.14a.07.07,0,0,1,0,.1l-.39.33s-.07,0-.1,0l-.2-.24a0,0,0,0,0-.06,0l-2.39,2s0,0,0,0l.21.24a.07.07,0,0,1,0,.1l-.4.33a.06.06,0,0,1-.09,0l-1-1.15s0-.06,0-.09l.39-.33s.07,0,.09,0l.21.25a0,0,0,0,0,.06,0l.91-.78s0,0,0,0L109,33.89a0,0,0,0,0-.06,0l-.91.78s0,0,0,0l.21.25s0,.06,0,.09l-.39.33a.07.07,0,0,1-.1,0l-1-1.15s0-.06,0-.09l.39-.33s.07,0,.1,0l.2.25a0,0,0,0,0,.06,0l2.39-2s0,0,0-.06l-.21-.24a.06.06,0,0,1,0-.09l.4-.34s.06,0,.09,0l1,1.14s0,.07,0,.1l-.39.33a.05.05,0,0,1-.09,0l-.21-.24a0,0,0,0,0-.06,0l-.88.75s0,0,0,0l1.06,1.24s0,0,0,0l.88-.75a0,0,0,0,0,0-.06l-.21-.24s0-.06,0-.09l.39-.34a.07.07,0,0,1,.1,0Z"/><path class="cls-1" d="M115.32,38l.78,1.19s0,.07,0,.09l-.43.28s-.07,0-.09,0l-.18-.27s0,0,0,0l-3.15,2s-.06,0-.09,0l-.32-.5a.12.12,0,0,1,0-.13l1.6-3.23,0,0-2.07,1.36s0,0,0,0l.18.27s0,.07,0,.09l-.43.28s-.07,0-.1,0l-.77-1.18s0-.07,0-.1l.43-.28s.07,0,.09,0l.18.27s0,0,0,0l2.62-1.72s0,0,0,0l-.17-.27s0-.06,0-.09l.43-.28a.05.05,0,0,1,.09,0l.56.86a.12.12,0,0,1,0,.13l-1.6,3.23v0l2.08-1.36s0,0,0-.06l-.17-.26s0-.07,0-.09l.43-.29s.07,0,.09,0Z"/><path class="cls-1" d="M117.21,42.69a.82.82,0,0,0-.9-.49,4.43,4.43,0,0,0-1,.39,4.12,4.12,0,0,0-.9.53.89.89,0,0,0,.75,1.5,3.69,3.69,0,0,0,1-.39,3.83,3.83,0,0,0,.89-.53.81.81,0,0,0,.16-1Zm.63-.31a1.77,1.77,0,0,1,.2,1,1.5,1.5,0,0,1-.47.88,6.41,6.41,0,0,1-2.22,1.1,1.5,1.5,0,0,1-1-.17,1.79,1.79,0,0,1-.7-.78,1.77,1.77,0,0,1-.19-1,1.49,1.49,0,0,1,.46-.88,4.49,4.49,0,0,1,1.06-.66,4.3,4.3,0,0,1,1.17-.44,1.5,1.5,0,0,1,1,.17,1.72,1.72,0,0,1,.69.78Z"/><path class="cls-1" d="M119.25,45.65l.51,1.41s0,.07,0,.08l-.49.18a.05.05,0,0,1-.08,0L119,47a0,0,0,0,0-.05,0l-2.89,1s0,0,0,.05l.42,1.16a0,0,0,0,0,.05,0l.38-.13s.07,0,.08,0l.21.56s0,.07,0,.08l-1,.37s-.07,0-.09,0L115,47.19s0-.07,0-.09l.48-.17s.07,0,.09,0l.11.3s0,0,0,0l2.94-1.07s0,0,0,0l-.11-.3a.05.05,0,0,1,0-.08l.48-.18s.07,0,.09,0Z"/><path class="cls-1" d="M120.61,52a.81.81,0,0,0-.77-.67,4.05,4.05,0,0,0-1,.17,3.84,3.84,0,0,0-1,.32.89.89,0,0,0,.39,1.63,4.05,4.05,0,0,0,1-.17,4.3,4.3,0,0,0,1-.32.82.82,0,0,0,.37-1Zm.68-.16a1.66,1.66,0,0,1,0,1,1.47,1.47,0,0,1-.65.77,4.49,4.49,0,0,1-1.17.41,4,4,0,0,1-1.24.17,1.44,1.44,0,0,1-.92-.37,2,2,0,0,1-.48-2,1.45,1.45,0,0,1,.65-.76,3.85,3.85,0,0,1,1.17-.41,4.53,4.53,0,0,1,1.24-.18,1.4,1.4,0,0,1,.92.38,1.67,1.67,0,0,1,.51.91Z"/><path class="cls-1" d="M122.27,57.27a2.38,2.38,0,0,1,0,.8,1.8,1.8,0,0,1-.24.63.15.15,0,0,1-.09.06l-.79.09s-.06,0-.07-.05l-.07-.6s0-.06.05-.07l.39-.05a.05.05,0,0,0,0,0,1.16,1.16,0,0,0,.09-.71.88.88,0,0,0-.71-.86,5.24,5.24,0,0,0-2,.24.79.79,0,0,0-.4.36,1.08,1.08,0,0,0-.08.62,1.39,1.39,0,0,0,.25.71.14.14,0,0,0,.12.06l.87-.11s0,0,0,0l-.09-.71s0-.07.06-.07l.52-.07a.07.07,0,0,1,.08.06l.17,1.44a.05.05,0,0,1,0,.07l-1.89.23a.18.18,0,0,1-.17-.06,2.54,2.54,0,0,1-.61-1.42,1.58,1.58,0,0,1,.85-1.8,4.78,4.78,0,0,1,1.23-.27,4.11,4.11,0,0,1,1.26,0,1.59,1.59,0,0,1,1.29,1.58Z"/><path class="cls-1" d="M122.53,62.66l0,1.33c0,.05,0,.07-.06.07H122a.06.06,0,0,1-.07-.07v-.18s0,0,0,0l-2-1.12h-1.16a0,0,0,0,0,0,0v.34s0,.06-.07.06h-.51s-.07,0-.07-.07l0-1.52c0-.05,0-.07.07-.07h.51s.07,0,.07.07v.33a0,0,0,0,0,0,0h1.16l2-1.17a.07.07,0,0,0,0-.06v-.16c0-.05,0-.07.06-.07h.52s.07,0,.07.07v1.34s0,.06-.06.06h-.52s-.06,0-.07-.07v-.24s0-.06-.06,0l-1.25.72v0l1.28.7s0,0,0,0v-.28a.06.06,0,0,1,.07-.07h.52s.06,0,.06.07Z"/><path class="cls-1" d="M39.8,85.2l-.44-.73s0,0,0,0l-1.12.67a0,0,0,0,0,0,.05l.44.73a.76.76,0,0,0,.45.37.64.64,0,0,0,.53-.08.66.66,0,0,0,.33-.44.74.74,0,0,0-.12-.56Zm-.44-2.1,1.07,1.78A1.5,1.5,0,0,1,40.64,86a1.26,1.26,0,0,1-.65.87,1.27,1.27,0,0,1-1.08.17,1.51,1.51,0,0,1-.88-.71l-.46-.77s0,0,0,0l-.84.5s0,0,0,0l.21.35s0,.07,0,.09l-.44.27a.06.06,0,0,1-.09,0l-.82-1.35s0-.07,0-.09l.44-.27a.06.06,0,0,1,.09,0l.17.27s0,0,.05,0L39,83.76a0,0,0,0,0,0-.05l-.17-.27a.08.08,0,0,1,0-.1l.45-.26a.06.06,0,0,1,.09,0Z"/><path class="cls-1" d="M42.74,89.38l-.56-.72s0,0-.06,0l-.93.72a0,0,0,0,0,0,.06l.55.72a.69.69,0,0,0,.45.28.61.61,0,0,0,.48-.13.58.58,0,0,0,.24-.43.72.72,0,0,0-.17-.5ZM42,87.32,43.29,89A1.49,1.49,0,0,1,43.67,90a1.26,1.26,0,0,1-.53.89,1.24,1.24,0,0,1-.74.28,1.33,1.33,0,0,1-.77-.23L41,92.24s0,0,0,.06l.19.24a.06.06,0,0,1,0,.09l-.4.31s-.07,0-.1,0l-.49-.64a.09.09,0,0,1,0-.12l.91-1.78-.43-.54s0,0,0,0l-.91.7a0,0,0,0,0,0,.06l.2.25s0,.06,0,.09l-.41.32a.06.06,0,0,1-.09,0l-.92-1.17a.07.07,0,0,1,0-.1l.41-.31a.05.05,0,0,1,.09,0l.2.25s0,0,.05,0L41.67,88s0,0,0,0l-.2-.25a.07.07,0,0,1,0-.1l.4-.31s.07,0,.09,0Z"/><path class="cls-1" d="M46,93a.8.8,0,0,0-1-.18,4.25,4.25,0,0,0-.79.67,4.31,4.31,0,0,0-.67.78.89.89,0,0,0,1.17,1.19,3.94,3.94,0,0,0,.79-.67,5,5,0,0,0,.68-.78A.81.81,0,0,0,46,93Zm.5-.5a1.78,1.78,0,0,1,.51.92,1.44,1.44,0,0,1-.16,1,4.49,4.49,0,0,1-.79,1,5.12,5.12,0,0,1-1,.79,1.58,1.58,0,0,1-1,.15,1.82,1.82,0,0,1-.9-.52,1.71,1.71,0,0,1-.51-.91,1.5,1.5,0,0,1,.16-1,4.62,4.62,0,0,1,.8-1,4,4,0,0,1,1-.79,1.43,1.43,0,0,1,1-.15,1.72,1.72,0,0,1,.9.51Z"/><path class="cls-1" d="M50.2,95.8a2.47,2.47,0,0,1,.53.59A1.83,1.83,0,0,1,51,97a.12.12,0,0,1,0,.1l-.49.62a.08.08,0,0,1-.1,0l-.46-.37s0-.06,0-.1l.24-.3a0,0,0,0,0,0-.06,1.19,1.19,0,0,0-.43-.57.87.87,0,0,0-1.1-.11,3.51,3.51,0,0,0-.72.73,4.32,4.32,0,0,0-.57.85.84.84,0,0,0,0,.54,1,1,0,0,0,.38.49,1.32,1.32,0,0,0,.67.34.13.13,0,0,0,.12,0l.54-.69s0,0,0,0L48.47,98s0-.06,0-.09l.33-.42a.06.06,0,0,1,.09,0l1.13.9a.07.07,0,0,1,0,.1l-1.19,1.48a.19.19,0,0,1-.16.07,2.52,2.52,0,0,1-1.42-.6,1.54,1.54,0,0,1-.65-1.86,4.44,4.44,0,0,1,.7-1,4.29,4.29,0,0,1,.87-.89,1.6,1.6,0,0,1,2,.22Z"/><path class="cls-1" d="M54.05,99.41l-.77-.48s0,0-.06,0l-.62,1a0,0,0,0,0,0,.06l.78.48a.71.71,0,0,0,.52.11.65.65,0,0,0,.48-.78.74.74,0,0,0-.34-.41Zm-1.41-1.67,1.79,1.11a1.47,1.47,0,0,1,.72.86,1.37,1.37,0,0,1-.78,1.53,1.27,1.27,0,0,1-.8.06l-.16,1.4a.05.05,0,0,0,0,0l.25.16s0,0,0,.09l-.27.44s0,0-.09,0l-.69-.43a.09.09,0,0,1,0-.11l.23-2-.58-.36s0,0,0,0l-.61,1s0,0,0,.05l.27.17a.05.05,0,0,1,0,.09l-.27.44s-.05,0-.09,0l-1.27-.79a.06.06,0,0,1,0-.09l.27-.43s.06,0,.09,0l.27.17s0,0,.06,0l1.64-2.65a0,0,0,0,0,0-.06l-.27-.16s0-.06,0-.09l.27-.44a.05.05,0,0,1,.09,0Z"/><path class="cls-1" d="M57,100.33l2.89,1.35a.06.06,0,0,1,0,.09l-.44.93s0,0-.08,0l-.52-.24a.06.06,0,0,1,0-.09l.15-.33s0,0,0,0l-1.21-.57a0,0,0,0,0,0,0l-.47,1s0,0,0,0l.82.38s0,0,0,0l.1-.21a.06.06,0,0,1,.09,0l.49.23s.06.05,0,.09l-.53,1.12a.06.06,0,0,1-.09,0l-.49-.23a.06.06,0,0,1,0-.09l.1-.21s0,0,0,0l-.82-.39s0,0-.06,0l-.49,1.06a0,0,0,0,0,0,0l1.22.56s0,0,.05,0l.17-.36a.06.06,0,0,1,.08,0l.52.24a.06.06,0,0,1,0,.09l-.45,1s0,0-.08,0l-2.89-1.35s0,0,0-.08l.22-.47a.06.06,0,0,1,.09,0l.29.13s0,0,0,0l1.32-2.82s0,0,0-.06l-.29-.13a.06.06,0,0,1,0-.09l.22-.46a.07.07,0,0,1,.09,0Z"/><path class="cls-1" d="M63,102.74a2.69,2.69,0,0,1,1.15.72.09.09,0,0,1,0,.09l-.28.83a.05.05,0,0,1-.08,0l-.56-.18s0,0,0-.08l.13-.39a.06.06,0,0,0,0-.07,1.86,1.86,0,0,0-.59-.32.87.87,0,0,0-.57,0,.55.55,0,0,0-.26.79,1.14,1.14,0,0,0,.53.4l.21.11c.81.4,1.09,1,.85,1.68a1.26,1.26,0,0,1-.72.82,1.89,1.89,0,0,1-1.3,0,3,3,0,0,1-1.28-.81.06.06,0,0,1,0-.08l.28-.86s0-.05.08,0l.58.19s.06,0,0,.09L61,106a0,0,0,0,0,0,0,2.18,2.18,0,0,0,.69.39,1,1,0,0,0,.64,0,.58.58,0,0,0,.37-.38.56.56,0,0,0-.05-.46,1.25,1.25,0,0,0-.53-.4l-.22-.11c-.8-.4-1.09-1-.85-1.67a1.19,1.19,0,0,1,.7-.79,1.75,1.75,0,0,1,1.21,0Z"/><path class="cls-1" d="M67.58,104a2.7,2.7,0,0,1,1.23.58.12.12,0,0,1,0,.09l-.18.86a.06.06,0,0,1-.08,0l-.57-.12a.06.06,0,0,1-.05-.08L68,105a.05.05,0,0,0,0-.07,1.8,1.8,0,0,0-.62-.25.82.82,0,0,0-.57,0,.49.49,0,0,0-.26.37.51.51,0,0,0,.09.45,1.27,1.27,0,0,0,.57.34l.23.08c.84.3,1.19.83,1,1.57a1.23,1.23,0,0,1-.62.89,1.81,1.81,0,0,1-1.29.11,3.06,3.06,0,0,1-1.37-.65.09.09,0,0,1,0-.09l.18-.88a.06.06,0,0,1,.08,0L66,107s.06,0,.06.08l-.1.43a.05.05,0,0,0,0,0,2,2,0,0,0,.73.31,1,1,0,0,0,.64,0,.54.54,0,0,0,.32-.42.53.53,0,0,0-.1-.44,1.24,1.24,0,0,0-.57-.35l-.23-.08c-.85-.3-1.19-.82-1-1.55a1.21,1.21,0,0,1,.61-.87,1.75,1.75,0,0,1,1.2-.1Z"/><path class="cls-1" d="M74.73,105.9l-.59,1.53,1.07,0-.46-1.57Zm-.3-1,.7,0a.08.08,0,0,1,.08.07l1.17,3.79a0,0,0,0,0,.05,0h.2a.05.05,0,0,1,.06.06l0,.52s0,.06-.07.06l-1.35,0s-.06,0-.06-.07v-.52a.07.07,0,0,1,.07-.06h.29s0,0,0-.05l-.18-.58-1.52,0-.21.56s0,.06,0,.06H74a.05.05,0,0,1,.06.06v.52a.07.07,0,0,1-.07.06l-1.35,0s-.06,0-.06-.07v-.52a.07.07,0,0,1,.07-.06h.22a.05.05,0,0,0,.06,0L74.34,105a.07.07,0,0,1,.09-.06Z"/><path class="cls-1" d="M80.75,104.7l1.4-.13s.07,0,.07.06l0,.52s0,.06-.06.07l-.31,0s0,0,0,0l.35,3.72s0,.07-.06.07l-.6.06a.12.12,0,0,1-.11-.06l-2.1-2.9h0l.23,2.46s0,0,0,0l.32,0a.07.07,0,0,1,.07.06l0,.52a.07.07,0,0,1-.06.07l-1.41.13s-.07,0-.07-.06l0-.51a.07.07,0,0,1,.06-.08l.32,0s0,0,0,0l-.29-3.1s0,0,0,0l-.32,0s-.06,0-.07-.06l0-.51s0-.07.06-.07l1-.1a.14.14,0,0,1,.12.06l2.1,2.91h0l-.23-2.46s0,0,0,0l-.31,0a.07.07,0,0,1-.08-.06l0-.51s0-.07.06-.08Z"/><path class="cls-1" d="M85.56,104.62l-.61.13s0,0,0,0l.66,2.94s0,0,0,0l.61-.14c.48-.11.74-.36.78-.76a5.48,5.48,0,0,0-.43-1.9.84.84,0,0,0-1-.35Zm-1.91-.29,1.94-.44a1.41,1.41,0,0,1,1.68.65,7.24,7.24,0,0,1,.55,2.43,1.41,1.41,0,0,1-1.25,1.3l-1.94.44a.06.06,0,0,1-.08,0l-.11-.5a.06.06,0,0,1,0-.08l.31-.07s0,0,0-.05l-.68-3s0,0-.05,0l-.31.07a.06.06,0,0,1-.08,0l-.11-.5a.06.06,0,0,1,.05-.08Z"/><path class="cls-1" d="M92.38,101.64a2.77,2.77,0,0,1,1.34-.22.07.07,0,0,1,.07.06l.34.81s0,.07,0,.08l-.53.23a.07.07,0,0,1-.09,0l-.15-.37a.05.05,0,0,0-.06,0,1.76,1.76,0,0,0-.66.15.81.81,0,0,0-.44.35.5.5,0,0,0,0,.46.49.49,0,0,0,.33.31,1.19,1.19,0,0,0,.66,0l.23-.06c.88-.23,1.46,0,1.75.71a1.26,1.26,0,0,1,0,1.09,1.84,1.84,0,0,1-1,.82,2.9,2.9,0,0,1-1.49.23.07.07,0,0,1-.07,0l-.35-.83a.06.06,0,0,1,0-.09l.57-.23s.06,0,.08,0l.17.41a.05.05,0,0,0,0,0,2.12,2.12,0,0,0,.78-.16,1,1,0,0,0,.51-.39.58.58,0,0,0,0-.53.52.52,0,0,0-.34-.31,1.19,1.19,0,0,0-.66,0l-.23.06q-1.32.34-1.74-.69a1.19,1.19,0,0,1,0-1.06,1.7,1.7,0,0,1,.93-.76Z"/><path class="cls-1" d="M95.21,100.44,98,98.89a.06.06,0,0,1,.09,0l.5.9a.06.06,0,0,1,0,.09l-.5.27a.05.05,0,0,1-.09,0l-.18-.32s0,0-.05,0l-1.17.65a0,0,0,0,0,0,0l.54,1s0,0,.06,0l.79-.44s0,0,0-.06l-.11-.21a.05.05,0,0,1,0-.08l.48-.27s.07,0,.09,0l.61,1.09a.06.06,0,0,1,0,.09l-.48.26a.05.05,0,0,1-.09,0l-.11-.21s0,0-.06,0l-.79.44s0,0,0,0l.57,1s0,0,0,0l1.17-.65s0,0,0-.06l-.19-.34a.06.06,0,0,1,0-.09l.49-.28a.06.06,0,0,1,.09,0l.52.92a.06.06,0,0,1,0,.09l-2.78,1.55s-.07,0-.09,0l-.25-.45s0-.07,0-.09l.28-.16s0,0,0,0l-1.52-2.72a0,0,0,0,0,0,0l-.28.16s-.06,0-.09,0l-.25-.45a.06.06,0,0,1,0-.09Z"/><path class="cls-1" d="M101.43,97.37l-.74.54s0,0,0,0l.69,1a0,0,0,0,0,.06,0l.74-.54a.74.74,0,0,0,.3-.43.61.61,0,0,0-.12-.48.57.57,0,0,0-.42-.26.7.7,0,0,0-.5.15Zm-2.09.68,1.71-1.24a1.49,1.49,0,0,1,1.06-.34A1.22,1.22,0,0,1,103,97a1.25,1.25,0,0,1,0,1.5l1.23.68a0,0,0,0,0,.06,0l.24-.17s.07,0,.1,0l.3.42a.06.06,0,0,1,0,.09l-.65.48a.11.11,0,0,1-.12,0l-1.75-1-.56.4a0,0,0,0,0,0,.06l.67.93s0,0,.06,0l.25-.19s.07,0,.09,0l.31.41a.07.07,0,0,1,0,.1l-1.21.87s-.06,0-.09,0l-.3-.42a.06.06,0,0,1,0-.09l.26-.19s0,0,0,0L100,98.39s0,0,0,0l-.26.19s-.07,0-.09,0l-.31-.42s0-.07,0-.09Z"/><path class="cls-1" d="M105.07,93.45l1-.92s.06,0,.09,0l.35.38a.06.06,0,0,1,0,.09l-.14.13s0,0,0,0L108,96.81a.08.08,0,0,1,0,.1l-.51.46s-.06,0-.1,0l-3.47-1.88a0,0,0,0,0-.06,0l-.13.12a.06.06,0,0,1-.09,0l-.35-.38a.07.07,0,0,1,0-.1l1-.92s.06,0,.09,0l.35.37s0,.07,0,.1l-.23.21s0,0,0,.07L107,96.37v0l-1.2-2.64s0,0,0,0l-.26.24s-.06,0-.09,0l-.35-.37s0-.07,0-.1Z"/><path class="cls-1" d="M106.92,91.58l1-1.11s.06,0,.1,0l.38.34a.06.06,0,0,1,0,.09l-.21.24s0,0,0,0l2.32,2.09s0,0,.06,0l.21-.24a.06.06,0,0,1,.09,0l.39.35a.06.06,0,0,1,0,.09l-1,1.11s-.06,0-.09,0l-.38-.35s0-.06,0-.09l.21-.24s0,0,0,0l-2.32-2.09s0,0,0,0l-.21.23s-.06,0-.1,0l-.38-.35a.06.06,0,0,1,0-.09Z"/><path class="cls-1" d="M109.87,87.92a2.4,2.4,0,0,1,1.08-.87.11.11,0,0,1,.1,0l.72.54a.06.06,0,0,1,0,.09l-.36.48s0,0-.09,0l-.36-.27a0,0,0,0,0-.06,0,1.23,1.23,0,0,0-.44.39,1.07,1.07,0,0,0-.25.58.87.87,0,0,0,.17.51A6.45,6.45,0,0,0,112,90.61a.78.78,0,0,0,.54,0,1.07,1.07,0,0,0,.49-.4,1.58,1.58,0,0,0,.26-.52.06.06,0,0,0,0-.06l-.38-.29s0,0,0-.09l.36-.48s0,0,.09,0l.72.54a.12.12,0,0,1,0,.1,2.56,2.56,0,0,1-.54,1.29,1.51,1.51,0,0,1-1.81.66,5.25,5.25,0,0,1-1.08-.67,5.05,5.05,0,0,1-.91-.82,1.53,1.53,0,0,1,.1-2Z"/><path class="cls-1" d="M111.6,85.59l1.62-2.76a.06.06,0,0,1,.09,0l.88.52a.05.05,0,0,1,0,.09l-.28.49a.06.06,0,0,1-.09,0l-.32-.18s0,0,0,0l-.68,1.16s0,0,0,0l1,.56s0,0,.06,0l.45-.78s0,0,0,0l-.21-.12s0-.06,0-.09l.28-.48s0,0,.09,0l1.07.63a.05.05,0,0,1,0,.09l-.27.47s-.06,0-.09,0l-.21-.12s0,0,0,0l-.46.78s0,0,0,0l1,.59s0,0,0,0l.68-1.15s0,0,0-.06l-.34-.2s0,0,0-.09l.28-.49a.08.08,0,0,1,.1,0l.91.53a.06.06,0,0,1,0,.09l-1.61,2.76a.06.06,0,0,1-.09,0l-.45-.26a.06.06,0,0,1,0-.09l.16-.27s0-.05,0-.06l-2.69-1.57s0,0-.06,0l-.16.27a.06.06,0,0,1-.09,0l-.44-.26s0-.06,0-.09Z"/><path class="cls-1" d="M120.36,74.49A1.46,1.46,0,1,1,118.9,73a1.45,1.45,0,0,1,1.46,1.45Z"/><path class="cls-1" d="M35,74.49A1.46,1.46,0,1,1,33.53,73,1.45,1.45,0,0,1,35,74.49Z"/><path class="cls-2" d="M169,83.75a18,18,0,0,1,.82,6,18,18,0,0,1-.82,6c-1.36,4.25-5.11,6.73-10,6.73s-8.71-2.48-10.08-6.73a18,18,0,0,1-.81-6,18,18,0,0,1,.81-6C150.24,79.5,154,77,159,77S167.61,79.5,169,83.75Zm-14.63,1.52a13.84,13.84,0,0,0-.51,4.51,13.66,13.66,0,0,0,.51,4.51A4.58,4.58,0,0,0,159,97.48a4.52,4.52,0,0,0,4.56-3.19,14,14,0,0,0,.5-4.51,14.16,14.16,0,0,0-.5-4.51A4.48,4.48,0,0,0,159,82.08,4.54,4.54,0,0,0,154.34,85.27Z"/><path class="cls-2" d="M186.09,67.55a.48.48,0,0,1,.51.5v4a.48.48,0,0,1-.51.51h-1.57c-2.53,0-3.09.61-3.09,3v1.67c0,.2.1.3.31.3h4.35a.48.48,0,0,1,.51.51v4a.48.48,0,0,1-.51.51h-4.35c-.21,0-.31.1-.31.3V96.72c0,.2.1.3.31.3h2.68a.48.48,0,0,1,.51.51v4a.48.48,0,0,1-.51.51H173.28a.49.49,0,0,1-.51-.51v-4a.49.49,0,0,1,.51-.51h2.18a.27.27,0,0,0,.3-.3V82.84a.27.27,0,0,0-.3-.3h-1.62a.48.48,0,0,1-.51-.51v-4a.48.48,0,0,1,.51-.51h1.62a.27.27,0,0,0,.3-.3V75.7c0-5.67,2.79-8.15,8.1-8.15Z"/><path class="cls-2" d="M226.31,67.55a.47.47,0,0,1,.5.5v8.11a.47.47,0,0,1-.5.5H222a.48.48,0,0,1-.51-.5v-3a.27.27,0,0,0-.3-.31H216a.27.27,0,0,0-.3.31v23.6a.27.27,0,0,0,.3.3h2.64a.48.48,0,0,1,.5.51v4a.48.48,0,0,1-.5.51H206.76a.48.48,0,0,1-.51-.51v-4a.48.48,0,0,1,.51-.51h2.63a.27.27,0,0,0,.3-.3V73.12a.27.27,0,0,0-.3-.31h-5.17a.27.27,0,0,0-.3.31v3a.48.48,0,0,1-.51.5h-4.35a.48.48,0,0,1-.51-.5V68.05a.48.48,0,0,1,.51-.5Z"/><path class="cls-2" d="M245.35,83.75c.56,1.73.81,3.4.81,7.35a.49.49,0,0,1-.55.5H230.56c-.2,0-.3.1-.3.31a5.41,5.41,0,0,0,.35,1.87,5.35,5.35,0,0,0,5.47,3.7,7.36,7.36,0,0,0,5.73-2.33c.25-.25.5-.31.76-.1l3,2.63a.46.46,0,0,1,.05.71,12.87,12.87,0,0,1-10,4.15c-5.17,0-8.81-2.53-10.18-6.78a18.87,18.87,0,0,1-.86-6,19.38,19.38,0,0,1,.81-6c1.37-4.25,5.11-6.73,10-6.73C240.34,77,244,79.6,245.35,83.75ZM230.56,85a6.27,6.27,0,0,0-.3,2.08.27.27,0,0,0,.3.3h9.58a.27.27,0,0,0,.3-.3,6.27,6.27,0,0,0-.3-2.08,5.22,5.22,0,0,0-9.58,0Z"/><path class="cls-2" d="M268.78,78.94a.65.65,0,0,1,.41.66v5.57a.48.48,0,0,1-.51.51h-4.3a.48.48,0,0,1-.51-.51V82.94c0-.2-.05-.25-.25-.35a8.69,8.69,0,0,0-3.09-.51c-2.59,0-4.31,1.07-5,3.19a14.57,14.57,0,0,0-.5,4.51,14.92,14.92,0,0,0,.5,4.56c.71,2.07,2.43,3.14,5,3.14a7.67,7.67,0,0,0,3.09-.46c.2-.1.25-.15.25-.35V94.39a.48.48,0,0,1,.51-.51h4.3a.49.49,0,0,1,.51.51V100a.65.65,0,0,1-.41.66,18.15,18.15,0,0,1-8.41,1.87c-5.31,0-9-2.23-10.38-6.58a20.48,20.48,0,0,1-.76-6.18,19.42,19.42,0,0,1,.76-6c1.42-4.35,5.22-6.73,10.38-6.73A17.51,17.51,0,0,1,268.78,78.94Z"/><path class="cls-2" d="M280.39,67.55a.48.48,0,0,1,.51.5v11.8H281C282,78.33,284.09,77,287.28,77c5.16,0,8.4,3.85,8.4,9.06V96.72a.27.27,0,0,0,.31.3h2.08a.48.48,0,0,1,.5.51v4a.48.48,0,0,1-.5.51H287.53a.49.49,0,0,1-.51-.51v-4a.49.49,0,0,1,.51-.51h2.18a.27.27,0,0,0,.3-.3V87.4c0-3.14-1.52-5.32-4.56-5.32s-4.55,2.18-4.55,5.32v9.32a.27.27,0,0,0,.3.3h2.18a.48.48,0,0,1,.5.51v4a.48.48,0,0,1-.5.51H272.74a.48.48,0,0,1-.5-.51v-4a.48.48,0,0,1,.5-.51h2.18a.27.27,0,0,0,.3-.3V72.81a.27.27,0,0,0-.3-.3h-2.18a.48.48,0,0,1-.5-.51v-4a.47.47,0,0,1,.5-.5Z"/><path class="cls-2" d="M324.56,86.08V96.72c0,.2.1.3.31.3h2.07a.48.48,0,0,1,.51.51v4a.48.48,0,0,1-.51.51H316.41a.48.48,0,0,1-.51-.51v-4a.48.48,0,0,1,.51-.51h2.18a.27.27,0,0,0,.3-.3V87.4c0-3.14-1.52-5.32-4.56-5.32s-4.56,2.18-4.56,5.32v9.32c0,.2.1.3.31.3h2.17a.48.48,0,0,1,.51.51v4a.48.48,0,0,1-.51.51H301.62a.49.49,0,0,1-.51-.51v-4a.49.49,0,0,1,.51-.51h2.18a.27.27,0,0,0,.3-.3V82.84a.27.27,0,0,0-.3-.3h-2.18a.48.48,0,0,1-.51-.51v-4a.49.49,0,0,1,.51-.51h7.65a.48.48,0,0,1,.5.51v1.77h.05A7.37,7.37,0,0,1,316.1,77C321.32,77,324.56,80.87,324.56,86.08Z"/><path class="cls-2" d="M350.53,83.75a18,18,0,0,1,.81,6,18,18,0,0,1-.81,6c-1.37,4.25-5.11,6.73-10,6.73s-8.71-2.48-10.07-6.73a18,18,0,0,1-.81-6,18,18,0,0,1,.81-6C331.79,79.5,335.54,77,340.5,77S349.16,79.5,350.53,83.75ZM335.9,85.27a13.84,13.84,0,0,0-.51,4.51,13.66,13.66,0,0,0,.51,4.51,4.57,4.57,0,0,0,4.6,3.19,4.52,4.52,0,0,0,4.56-3.19,13.66,13.66,0,0,0,.51-4.51,13.84,13.84,0,0,0-.51-4.51,4.48,4.48,0,0,0-4.56-3.19A4.53,4.53,0,0,0,335.9,85.27Z"/><path class="cls-2" d="M360.86,67.55a.48.48,0,0,1,.51.5V94.79c0,1.68.66,2.23,2.13,2.23h1.11a.48.48,0,0,1,.51.51v4.1a.48.48,0,0,1-.51.51h-2.23c-4.76,0-6.68-2.43-6.68-7.14V72.81c0-.2-.1-.3-.31-.3h-2.17a.48.48,0,0,1-.51-.51v-4a.48.48,0,0,1,.51-.5Z"/><path class="cls-2" d="M388,83.75a18,18,0,0,1,.81,6,18,18,0,0,1-.81,6c-1.37,4.25-5.12,6.73-10,6.73s-8.71-2.48-10.08-6.73a18.25,18.25,0,0,1-.81-6,18.29,18.29,0,0,1,.81-6C369.29,79.5,373,77,378,77S386.66,79.5,388,83.75Zm-14.64,1.52a14.16,14.16,0,0,0-.5,4.51,14,14,0,0,0,.5,4.51A4.58,4.58,0,0,0,378,97.48a4.52,4.52,0,0,0,4.56-3.19,13.93,13.93,0,0,0,.51-4.51,14.12,14.12,0,0,0-.51-4.51A4.48,4.48,0,0,0,378,82.08,4.54,4.54,0,0,0,373.39,85.27Z"/><path class="cls-2" d="M407.38,79.9h.05V78.08a.48.48,0,0,1,.51-.51h7.65a.48.48,0,0,1,.5.51v4a.48.48,0,0,1-.5.51h-2.18a.27.27,0,0,0-.31.3v17.63c0,7-3.9,11.19-11.39,11.19-3.39,0-7-1.42-8.86-3.65a.45.45,0,0,1,0-.71l3-3a.46.46,0,0,1,.75,0,7.53,7.53,0,0,0,5.32,2.27c3.75,0,5.47-2,5.47-5.82V98.49h-.05c-1.11,1.72-3.19,2.84-6.33,2.84a8.17,8.17,0,0,1-8.31-5.93,18.76,18.76,0,0,1-.81-6.23,18.52,18.52,0,0,1,.81-6.18,8.15,8.15,0,0,1,8.31-6C404.19,77,406.27,78.13,407.38,79.9Zm-9.17,5.27a11.9,11.9,0,0,0-.55,4,11.49,11.49,0,0,0,.55,4,4.56,4.56,0,0,0,8.66,0,11.24,11.24,0,0,0,.56-4,11.64,11.64,0,0,0-.56-4,4.58,4.58,0,0,0-8.66,0Z"/><path class="cls-2" d="M442.19,77.57a.49.49,0,0,1,.51.51v4a.48.48,0,0,1-.51.51h-1.32c-.2,0-.3,0-.4.3l-8.05,20.67c-2.23,5.72-4.16,7.59-8.21,7.59h-1.57a.48.48,0,0,1-.51-.5v-4.06a.48.48,0,0,1,.51-.5h.91c1.93,0,2.94-.86,3.65-2.89l.71-2.08-7.6-18.28a.33.33,0,0,0-.35-.25h-1.37a.48.48,0,0,1-.51-.51v-4a.49.49,0,0,1,.51-.51h9.47a.49.49,0,0,1,.51.51v4a.48.48,0,0,1-.51.51h-1.62c-.25,0-.3.15-.25.35l4.35,11.5h.1L435,82.89a.25.25,0,0,0-.26-.35h-1.62a.48.48,0,0,1-.5-.51v-4a.48.48,0,0,1,.5-.51Z"/><path class="cls-2" d="M440.23,97.25h0a2.48,2.48,0,1,0,2.43,2.47A2.46,2.46,0,0,0,440.22,97.25Zm0,4.56a2.09,2.09,0,0,1,0-4.17h0a2,2,0,0,1,2,2.09A2,2,0,0,1,440.23,101.81Z"/><path class="cls-2" d="M440.67,99.81v0a.69.69,0,0,0,.53-.67.67.67,0,0,0-.25-.57,1.43,1.43,0,0,0-.85-.21,4.16,4.16,0,0,0-.78.07v2.75h.44V100h.3a.51.51,0,0,1,.59.49,2,2,0,0,0,.19.7h.46a2.28,2.28,0,0,1-.17-.68C441.07,100.07,440.91,99.85,440.67,99.81Zm-.6-.18h-.31V98.7l.31,0c.5,0,.67.24.67.48S440.44,99.63,440.07,99.63Z"/><path class="cls-2" d="M170.56,26.39a.83.83,0,0,1,.35.71v6.09a.47.47,0,0,1-.5.5h-4.57a.48.48,0,0,1-.51-.5v-3a.41.41,0,0,0-.2-.4,9.93,9.93,0,0,0-5.32-1.37c-4.26,0-6.19,1.82-7.15,4.61-.41,1.27-.82,3-.82,7.92s.26,6.54.66,7.81c1,2.79,2.84,4.51,7.05,4.51a10.56,10.56,0,0,0,5.63-1.22c.41-.25.51-.4.51-.81V44.5c0-.21-.1-.31-.3-.31h-5.48a.48.48,0,0,1-.51-.51v-4a.48.48,0,0,1,.51-.51H171a.48.48,0,0,1,.51.51V54.18a1.2,1.2,0,0,1-.66,1.22,19.22,19.22,0,0,1-11.36,3.25c-6.95,0-11.06-2.59-12.83-8.07-.71-2.13-.86-4.21-.86-9.63s.25-7.41,1-9.54C148.5,25.93,153,23,160,23,164.32,23,168.33,24.51,170.56,26.39Z"/><path class="cls-2" d="M196.73,39.83c.56,1.72.81,3.4.81,7.35a.49.49,0,0,1-.56.51H181.92a.28.28,0,0,0-.31.31,5.41,5.41,0,0,0,.36,1.87,5.33,5.33,0,0,0,5.48,3.7,7.36,7.36,0,0,0,5.73-2.33.52.52,0,0,1,.76-.1l3,2.64a.46.46,0,0,1,0,.71,12.9,12.9,0,0,1-10,4.16c-5.17,0-8.83-2.54-10.19-6.8a18.83,18.83,0,0,1-.87-6,19.7,19.7,0,0,1,.81-6c1.37-4.26,5.13-6.75,10-6.75C191.71,33.08,195.36,35.67,196.73,39.83Zm-14.81,1.22a6.25,6.25,0,0,0-.31,2.08.27.27,0,0,0,.31.3h9.58c.21,0,.31-.1.31-.3a6,6,0,0,0-.31-2.08,5.22,5.22,0,0,0-9.58,0Z"/><path class="cls-2" d="M221.93,39.83a18,18,0,0,1,.82,6,18,18,0,0,1-.82,6c-1.36,4.26-5.12,6.75-10,6.75s-8.72-2.49-10.09-6.75a18,18,0,0,1-.81-6,18,18,0,0,1,.81-6c1.37-4.26,5.12-6.75,10.09-6.75S220.57,35.57,221.93,39.83Zm-14.65,1.52a13.9,13.9,0,0,0-.51,4.52,13.69,13.69,0,0,0,.51,4.51,4.57,4.57,0,0,0,4.61,3.19,4.52,4.52,0,0,0,4.57-3.19,14,14,0,0,0,.5-4.51,14.22,14.22,0,0,0-.5-4.52,4.48,4.48,0,0,0-4.57-3.19A4.53,4.53,0,0,0,207.28,41.35Z"/><path class="cls-2" d="M243,33.54c.31.05.51.2.51.51v4.41c0,.36-.2.61-.61.51a17.27,17.27,0,0,0-3-.41c-3.6,0-5.48,1.93-5.48,6.29v8a.27.27,0,0,0,.31.31h2.38a.48.48,0,0,1,.51.51v3.95a.48.48,0,0,1-.51.51H226.25a.48.48,0,0,1-.51-.51V53.63a.48.48,0,0,1,.51-.51h2.18c.2,0,.3-.1.3-.31V38.92c0-.21-.1-.31-.3-.31h-2.18a.48.48,0,0,1-.51-.5v-4a.48.48,0,0,1,.51-.51h7.65a.48.48,0,0,1,.51.51v2.54h.05a7,7,0,0,1,6.14-3.4A11.32,11.32,0,0,1,243,33.54Z"/><path class="cls-2" d="M261.19,36h.05V34.15a.48.48,0,0,1,.51-.51h7.66a.48.48,0,0,1,.5.51v4a.47.47,0,0,1-.5.5h-2.18a.27.27,0,0,0-.31.31V56.57c0,7-3.9,11.21-11.41,11.21-3.4,0-7-1.42-8.88-3.66a.46.46,0,0,1,.05-.71l3-3a.48.48,0,0,1,.76,0,7.5,7.5,0,0,0,5.32,2.28c3.76,0,5.48-2,5.48-5.83V54.59h-.05c-1.12,1.72-3.19,2.84-6.34,2.84a8.17,8.17,0,0,1-8.32-5.94,18.54,18.54,0,0,1-.81-6.23,18.3,18.3,0,0,1,.81-6.19,8.16,8.16,0,0,1,8.32-6C258,33.08,260.07,34.2,261.19,36ZM252,41.25a11.66,11.66,0,0,0-.56,4,11.24,11.24,0,0,0,.56,4,4.56,4.56,0,0,0,8.67,0,11.24,11.24,0,0,0,.56-4,11.66,11.66,0,0,0-.56-4,4.59,4.59,0,0,0-8.67,0Z"/><path class="cls-2" d="M280.61,33.64a.48.48,0,0,1,.51.51V52.81a.27.27,0,0,0,.31.31h2.18a.48.48,0,0,1,.5.51v3.95a.48.48,0,0,1-.5.51H273a.48.48,0,0,1-.51-.51V53.63a.48.48,0,0,1,.51-.51h2.18c.2,0,.3-.1.3-.31V38.92c0-.21-.1-.31-.3-.31H273a.48.48,0,0,1-.51-.5v-4a.48.48,0,0,1,.51-.51Zm0-10a.48.48,0,0,1,.51.51v4.41a.48.48,0,0,1-.51.51H276a.48.48,0,0,1-.51-.51V24.11a.48.48,0,0,1,.51-.51Z"/><path class="cls-2" d="M307,41.61v11.2c0,.21.1.31.3.31h2.18a.48.48,0,0,1,.51.51v3.95a.48.48,0,0,1-.51.51h-7.25a.48.48,0,0,1-.51-.51V55.81h0c-1.16,1.67-3.4,2.84-6.79,2.84-4.42,0-8.17-2.39-8.17-7.51,0-5.33,3.75-7.81,9.74-7.81h4.87a.27.27,0,0,0,.3-.3v-1c0-2.79-1.06-4.26-5-4.26a12.93,12.93,0,0,0-2.64.31c-.2,0-.25.15-.25.35v2.18a.48.48,0,0,1-.51.51h-4.41a.48.48,0,0,1-.51-.51V35.47a.64.64,0,0,1,.41-.66,19.35,19.35,0,0,1,8.16-1.73C304.3,33.08,307,35.62,307,41.61Zm-9.64,6c-3.6,0-5.22,1.07-5.22,3.35,0,2,1.47,3.09,4.16,3.09,3.44,0,5.32-1.37,5.32-4.16v-2a.27.27,0,0,0-.3-.3Z"/><path class="cls-2" d="M335.18,23.6a.48.48,0,0,1,.51.51v3.95a.48.48,0,0,1-.51.51h-2.43c-.2,0-.3.1-.3.31V52.81c0,.21.1.31.3.31h2.43a.48.48,0,0,1,.51.51v3.95a.48.48,0,0,1-.51.51H323.72a.48.48,0,0,1-.5-.51V53.63a.48.48,0,0,1,.5-.51h2.44c.2,0,.3-.1.3-.31V28.88c0-.21-.1-.31-.3-.31h-2.44a.48.48,0,0,1-.5-.51V24.11a.48.48,0,0,1,.5-.51Z"/><path class="cls-2" d="M362.44,42.16V52.81c0,.21.1.31.3.31h2.08a.48.48,0,0,1,.51.51v3.95a.48.48,0,0,1-.51.51H354.27a.48.48,0,0,1-.51-.51V53.63a.48.48,0,0,1,.51-.51h2.18c.2,0,.3-.1.3-.31V43.48c0-3.14-1.52-5.32-4.56-5.32s-4.56,2.18-4.56,5.32v9.33c0,.21.1.31.3.31h2.18a.48.48,0,0,1,.51.51v3.95a.48.48,0,0,1-.51.51H339.46a.48.48,0,0,1-.51-.51V53.63a.48.48,0,0,1,.51-.51h2.18a.28.28,0,0,0,.31-.31V38.92a.28.28,0,0,0-.31-.31h-2.18a.48.48,0,0,1-.51-.5v-4a.49.49,0,0,1,.51-.51h7.66a.49.49,0,0,1,.51.51v1.77h.05A7.37,7.37,0,0,1,354,33.08C359.19,33.08,362.44,36.94,362.44,42.16Z"/><path class="cls-2" d="M386.59,34.81a.68.68,0,0,1,.4.71v5.07a.48.48,0,0,1-.5.51h-4.11a.48.48,0,0,1-.51-.51V38.71a.37.37,0,0,0-.25-.4,10.45,10.45,0,0,0-3.66-.56c-2.84,0-4.1,1-4.1,2.49s.81,2.33,4.1,2.68l2.69.31c5.68.66,7.76,3.24,7.76,7.35,0,5-3.6,8.07-10.5,8.07a20.79,20.79,0,0,1-9.13-1.93.59.59,0,0,1-.35-.61V50.63a.48.48,0,0,1,.51-.5h4.31a.48.48,0,0,1,.51.5v2.23a.34.34,0,0,0,.25.36,11.76,11.76,0,0,0,4.26.66c3.14,0,4.56-1,4.56-2.84,0-1.62-.91-2.49-4.21-2.84l-2.68-.31c-5.33-.6-7.56-3.14-7.56-7.25,0-4.56,3.35-7.56,9.64-7.56A20.65,20.65,0,0,1,386.59,34.81Z"/><path class="cls-2" d="M398.29,26.14a.48.48,0,0,1,.51.5v6.7a.27.27,0,0,0,.3.3h3.25a.49.49,0,0,1,.51.51v4a.48.48,0,0,1-.51.5H399.1c-.2,0-.3.1-.3.31V50.84c0,1.72.71,2.28,2.28,2.28h1.27a.48.48,0,0,1,.51.51v4.1a.48.48,0,0,1-.51.51h-2.44c-4.91,0-6.79-2.38-6.79-7.15V38.92a.27.27,0,0,0-.31-.31h-1.62a.48.48,0,0,1-.51-.5v-4a.49.49,0,0,1,.51-.51h1.62c.21,0,.31-.1.31-.3v-6.7a.48.48,0,0,1,.51-.5Z"/><path class="cls-2" d="M414.27,33.64a.48.48,0,0,1,.5.51V52.81a.28.28,0,0,0,.31.31h2.18a.48.48,0,0,1,.51.51v3.95a.48.48,0,0,1-.51.51H406.61a.48.48,0,0,1-.51-.51V53.63a.48.48,0,0,1,.51-.51h2.18c.2,0,.3-.1.3-.31V38.92c0-.21-.1-.31-.3-.31h-2.18a.48.48,0,0,1-.51-.5v-4a.49.49,0,0,1,.51-.51Zm0-10a.48.48,0,0,1,.5.51v4.41a.48.48,0,0,1-.5.51H409.6a.49.49,0,0,1-.51-.51V24.11a.48.48,0,0,1,.51-.51Z"/><path class="cls-2" d="M426.83,26.14a.48.48,0,0,1,.51.5v6.7a.27.27,0,0,0,.3.3h3.25a.48.48,0,0,1,.5.51v4a.47.47,0,0,1-.5.5h-3.25c-.2,0-.3.1-.3.31V50.84c0,1.72.71,2.28,2.28,2.28h1.27a.48.48,0,0,1,.5.51v4.1a.48.48,0,0,1-.5.51h-2.44c-4.92,0-6.79-2.38-6.79-7.15V38.92a.28.28,0,0,0-.31-.31h-1.62a.48.48,0,0,1-.51-.5v-4a.48.48,0,0,1,.51-.51h1.62a.27.27,0,0,0,.31-.3v-6.7a.47.47,0,0,1,.5-.5Z"/><path class="cls-2" d="M457.34,33.64a.48.48,0,0,1,.5.51V52.81a.28.28,0,0,0,.31.31h2.18a.48.48,0,0,1,.51.51v3.95a.48.48,0,0,1-.51.51h-7.66a.48.48,0,0,1-.51-.51V55.81h-.05a7.4,7.4,0,0,1-6.29,2.84c-5.22,0-8.36-3.86-8.36-9.08V38.92a.28.28,0,0,0-.31-.31H435a.48.48,0,0,1-.51-.5v-4a.49.49,0,0,1,.51-.51h7.66a.49.49,0,0,1,.51.51v14.1c0,3.14,1.42,5.32,4.51,5.32,2.89,0,4.51-2.18,4.51-5.27V38.92c0-.21-.1-.31-.3-.31h-2.23a.48.48,0,0,1-.51-.5v-4a.48.48,0,0,1,.51-.51Z"/><path class="cls-2" d="M470,26.14a.48.48,0,0,1,.51.5v6.7a.27.27,0,0,0,.3.3h3.25a.48.48,0,0,1,.5.51v4a.47.47,0,0,1-.5.5h-3.25c-.2,0-.3.1-.3.31V50.84c0,1.72.71,2.28,2.28,2.28h1.27a.48.48,0,0,1,.5.51v4.1a.48.48,0,0,1-.5.51h-2.44c-4.92,0-6.79-2.38-6.79-7.15V38.92a.27.27,0,0,0-.31-.31h-1.62a.48.48,0,0,1-.51-.5v-4a.49.49,0,0,1,.51-.51h1.62c.21,0,.31-.1.31-.3v-6.7a.47.47,0,0,1,.5-.5Z"/><path class="cls-2" d="M498.9,39.83c.56,1.72.82,3.4.82,7.35a.5.5,0,0,1-.56.51H484.09c-.2,0-.3.1-.3.31a5.19,5.19,0,0,0,.36,1.87,5.32,5.32,0,0,0,5.47,3.7,7.35,7.35,0,0,0,5.73-2.33c.26-.25.51-.3.76-.1l3,2.64a.46.46,0,0,1,.05.71,12.9,12.9,0,0,1-10,4.16c-5.18,0-8.83-2.54-10.2-6.8a18.87,18.87,0,0,1-.86-6,19.4,19.4,0,0,1,.81-6c1.37-4.26,5.12-6.75,10-6.75S497.53,35.67,498.9,39.83Zm-14.81,1.22a6.27,6.27,0,0,0-.3,2.08.27.27,0,0,0,.3.3h9.59a.27.27,0,0,0,.3-.3,6.27,6.27,0,0,0-.3-2.08,5.22,5.22,0,0,0-9.59,0Z"/></svg>