<?xml version='1.0' encoding='UTF-8' ?>
<svg
  width="49mm"
  height="49mm"
  version="1.1"
  viewBox="0 0 49 49"
  xmlns="http://www.w3.org/2000/svg"
>
  <path
    d="M 19 34 L 19 35 L 20 35 L 20 34 z M 22 39 L 22 40 L 23 40 L 23 39 z M 12 4 L 12 5 L 13 5 L 13 4 z M 31 17 L 31 18 L 32 18 L 32 17 z M 33 36 L 33 37 L 34 37 L 34 36 z M 23 13 L 23 14 L 24 14 L 24 13 z M 4 9 L 4 10 L 5 10 L 5 9 z M 12 22 L 12 23 L 13 23 L 13 22 z M 23 22 L 23 23 L 24 23 L 24 22 z M 4 18 L 4 19 L 5 19 L 5 18 z M 4 27 L 4 28 L 5 28 L 5 27 z M 15 27 L 15 28 L 16 28 L 16 27 z M 37 24 L 37 25 L 38 25 L 38 24 z M 37 33 L 37 34 L 38 34 L 38 33 z M 29 29 L 29 30 L 30 30 L 30 29 z M 8 6 L 8 7 L 9 7 L 9 6 z M 38 7 L 38 8 L 39 8 L 39 7 z M 37 42 L 37 43 L 38 43 L 38 42 z M 6 36 L 6 37 L 7 37 L 7 36 z M 29 38 L 29 39 L 30 39 L 30 38 z M 26 14 L 26 15 L 27 15 L 27 14 z M 7 10 L 7 11 L 8 11 L 8 10 z M 38 25 L 38 26 L 39 26 L 39 25 z M 18 19 L 18 20 L 19 20 L 19 19 z M 41 21 L 41 22 L 42 22 L 42 21 z M 38 34 L 38 35 L 39 35 L 39 34 z M 18 28 L 18 29 L 19 29 L 19 28 z M 26 41 L 26 42 L 27 42 L 27 41 z M 18 37 L 18 38 L 19 38 L 19 37 z M 42 4 L 42 5 L 43 5 L 43 4 z M 41 39 L 41 40 L 42 40 L 42 39 z M 19 11 L 19 12 L 20 12 L 20 11 z M 42 13 L 42 14 L 43 14 L 43 13 z M 19 20 L 19 21 L 20 21 L 20 20 z M 30 20 L 30 21 L 31 21 L 31 20 z M 42 22 L 42 23 L 43 23 L 43 22 z M 22 16 L 22 17 L 23 17 L 23 16 z M 19 29 L 19 30 L 20 30 L 20 29 z M 30 29 L 30 30 L 31 30 L 31 29 z M 4 4 L 4 5 L 5 5 L 5 4 z M 10 38 L 10 39 L 11 39 L 11 38 z M 34 17 L 34 18 L 35 18 L 35 17 z M 25 36 L 25 37 L 26 37 L 26 36 z M 4 13 L 4 14 L 5 14 L 5 13 z M 15 13 L 15 14 L 16 14 L 16 13 z M 29 15 L 29 16 L 30 16 L 30 15 z M 29 24 L 29 25 L 30 25 L 30 24 z M 14 35 L 14 36 L 15 36 L 15 35 z M 14 44 L 14 45 L 15 45 L 15 44 z M 26 9 L 26 10 L 27 10 L 27 9 z M 6 40 L 6 41 L 7 41 L 7 40 z M 41 7 L 41 8 L 42 8 L 42 7 z M 18 14 L 18 15 L 19 15 L 19 14 z M 41 16 L 41 17 L 42 17 L 42 16 z M 38 29 L 38 30 L 39 30 L 39 29 z M 26 36 L 26 37 L 27 37 L 27 36 z M 7 41 L 7 42 L 8 42 L 8 41 z M 19 6 L 19 7 L 20 7 L 20 6 z M 42 8 L 42 9 L 43 9 L 43 8 z M 40 38 L 40 39 L 41 39 L 41 38 z M 30 15 L 30 16 L 31 16 L 31 15 z M 22 11 L 22 12 L 23 12 L 23 11 z M 30 24 L 30 25 L 31 25 L 31 24 z M 21 43 L 21 44 L 22 44 L 22 43 z M 32 43 L 32 44 L 33 44 L 33 43 z M 11 20 L 11 21 L 12 21 L 12 20 z M 25 22 L 25 23 L 26 23 L 26 22 z M 10 42 L 10 43 L 11 43 L 11 42 z M 33 44 L 33 45 L 34 45 L 34 44 z M 14 12 L 14 13 L 15 13 L 15 12 z M 37 23 L 37 24 L 38 24 L 38 23 z M 14 30 L 14 31 L 15 31 L 15 30 z M 29 28 L 29 29 L 30 29 L 30 28 z M 14 39 L 14 40 L 15 40 L 15 39 z M 26 4 L 26 5 L 27 5 L 27 4 z M 38 6 L 38 7 L 39 7 L 39 6 z M 37 41 L 37 42 L 38 42 L 38 41 z M 38 15 L 38 16 L 39 16 L 39 15 z M 6 44 L 6 45 L 7 45 L 7 44 z M 7 18 L 7 19 L 8 19 L 8 18 z M 7 27 L 7 28 L 8 28 L 8 27 z M 18 27 L 18 28 L 19 28 L 19 27 z M 18 36 L 18 37 L 19 37 L 19 36 z M 40 33 L 40 34 L 41 34 L 41 33 z M 30 10 L 30 11 L 31 11 L 31 10 z M 32 29 L 32 30 L 33 30 L 33 29 z M 40 42 L 40 43 L 41 43 L 41 42 z M 21 38 L 21 39 L 22 39 L 22 38 z M 32 38 L 32 39 L 33 39 L 33 38 z M 11 15 L 11 16 L 12 16 L 12 15 z M 22 15 L 22 16 L 23 16 L 23 15 z M 33 12 L 33 13 L 34 13 L 34 12 z M 44 12 L 44 13 L 45 13 L 45 12 z M 33 21 L 33 22 L 34 22 L 34 21 z M 44 21 L 44 22 L 45 22 L 45 21 z M 25 17 L 25 18 L 26 18 L 26 17 z M 10 28 L 10 29 L 11 29 L 11 28 z M 25 44 L 25 45 L 26 45 L 26 44 z M 29 5 L 29 6 L 30 6 L 30 5 z M 14 16 L 14 17 L 15 17 L 15 16 z M 37 18 L 37 19 L 38 19 L 38 18 z M 6 12 L 6 13 L 7 13 L 7 12 z M 29 14 L 29 15 L 30 15 L 30 14 z M 37 27 L 37 28 L 38 28 L 38 27 z M 6 21 L 6 22 L 7 22 L 7 21 z M 14 34 L 14 35 L 15 35 L 15 34 z M 6 30 L 6 31 L 7 31 L 7 30 z M 29 32 L 29 33 L 30 33 L 30 32 z M 26 8 L 26 9 L 27 9 L 27 8 z M 38 10 L 38 11 L 39 11 L 39 10 z M 7 4 L 7 5 L 8 5 L 8 4 z M 18 4 L 18 5 L 19 5 L 19 4 z M 41 6 L 41 7 L 42 7 L 42 6 z M 17 36 L 17 37 L 18 37 L 18 36 z M 28 36 L 28 37 L 29 37 L 29 36 z M 18 13 L 18 14 L 19 14 L 19 13 z M 41 15 L 41 16 L 42 16 L 42 15 z M 36 40 L 36 41 L 37 41 L 37 40 z M 18 22 L 18 23 L 19 23 L 19 22 z M 40 19 L 40 20 L 41 20 L 41 19 z M 30 5 L 30 6 L 31 6 L 31 5 z M 40 37 L 40 38 L 41 38 L 41 37 z M 21 33 L 21 34 L 22 34 L 22 33 z M 32 33 L 32 34 L 33 34 L 33 33 z M 21 42 L 21 43 L 22 43 L 22 42 z M 44 7 L 44 8 L 45 8 L 45 7 z M 32 42 L 32 43 L 33 43 L 33 42 z M 13 38 L 13 39 L 14 39 L 14 38 z M 10 14 L 10 15 L 11 15 L 11 14 z M 33 16 L 33 17 L 34 17 L 34 16 z M 44 25 L 44 26 L 45 26 L 45 25 z M 25 21 L 25 22 L 26 22 L 26 21 z M 10 32 L 10 33 L 11 33 L 11 32 z M 33 34 L 33 35 L 34 35 L 34 34 z M 25 30 L 25 31 L 26 31 L 26 30 z M 10 41 L 10 42 L 11 42 L 11 41 z M 14 11 L 14 12 L 15 12 L 15 11 z M 37 13 L 37 14 L 38 14 L 38 13 z M 6 7 L 6 8 L 7 8 L 7 7 z M 29 9 L 29 10 L 30 10 L 30 9 z M 14 20 L 14 21 L 15 21 L 15 20 z M 24 43 L 24 44 L 25 44 L 25 43 z M 6 16 L 6 17 L 7 17 L 7 16 z M 29 18 L 29 19 L 30 19 L 30 18 z M 14 29 L 14 30 L 15 30 L 15 29 z M 36 26 L 36 27 L 37 27 L 37 26 z M 26 12 L 26 13 L 27 13 L 27 12 z M 17 31 L 17 32 L 18 32 L 18 31 z M 28 31 L 28 32 L 29 32 L 29 31 z M 7 8 L 7 9 L 8 9 L 8 8 z M 18 8 L 18 9 L 19 9 L 19 8 z M 5 38 L 5 39 L 6 39 L 6 38 z M 28 40 L 28 41 L 29 41 L 29 40 z M 39 40 L 39 41 L 40 41 L 40 40 z M 32 10 L 32 11 L 33 11 L 33 10 z M 40 23 L 40 24 L 41 24 L 41 23 z M 21 19 L 21 20 L 22 20 L 22 19 z M 13 15 L 13 16 L 14 16 L 14 15 z M 21 28 L 21 29 L 22 29 L 22 28 z M 13 24 L 13 25 L 14 25 L 14 24 z M 21 37 L 21 38 L 22 38 L 22 37 z M 32 37 L 32 38 L 33 38 L 33 37 z M 13 33 L 13 34 L 14 34 L 14 33 z M 9 44 L 9 45 L 10 45 L 10 44 z M 10 9 L 10 10 L 11 10 L 11 9 z M 13 42 L 13 43 L 14 43 L 14 42 z M 10 18 L 10 19 L 11 19 L 11 18 z M 33 20 L 33 21 L 34 21 L 34 20 z M 44 20 L 44 21 L 45 21 L 45 20 z M 33 29 L 33 30 L 34 30 L 34 29 z M 44 29 L 44 30 L 45 30 L 45 29 z M 25 25 L 25 26 L 26 26 L 26 25 z M 10 36 L 10 37 L 11 37 L 11 36 z M 25 34 L 25 35 L 26 35 L 26 34 z M 43 33 L 43 34 L 44 34 L 44 33 z M 14 6 L 14 7 L 15 7 L 15 6 z M 43 42 L 43 43 L 44 43 L 44 42 z M 29 4 L 29 5 L 30 5 L 30 4 z M 24 38 L 24 39 L 25 39 L 25 38 z M 14 15 L 14 16 L 15 16 L 15 15 z M 35 38 L 35 39 L 36 39 L 36 38 z M 29 13 L 29 14 L 30 14 L 30 13 z M 36 12 L 36 13 L 37 13 L 37 12 z M 16 43 L 16 44 L 17 44 L 17 43 z M 36 21 L 36 22 L 37 22 L 37 21 z M 17 17 L 17 18 L 18 18 L 18 17 z M 36 30 L 36 31 L 37 31 L 37 30 z M 17 26 L 17 27 L 18 27 L 18 26 z M 28 26 L 28 27 L 29 27 L 29 26 z M 39 26 L 39 27 L 40 27 L 40 26 z M 36 39 L 36 40 L 37 40 L 37 39 z M 17 35 L 17 36 L 18 36 L 18 35 z M 39 35 L 39 36 L 40 36 L 40 35 z M 20 31 L 20 32 L 21 32 L 21 31 z M 28 44 L 28 45 L 29 45 L 29 44 z M 39 44 L 39 45 L 40 45 L 40 44 z M 20 40 L 20 41 L 21 41 L 21 40 z M 21 5 L 21 6 L 22 6 L 22 5 z M 32 5 L 32 6 L 33 6 L 33 5 z M 40 18 L 40 19 L 41 19 L 41 18 z M 9 21 L 9 22 L 10 22 L 10 21 z M 21 23 L 21 24 L 22 24 L 22 23 z M 40 36 L 40 37 L 41 37 L 41 36 z M 9 30 L 9 31 L 10 31 L 10 30 z M 32 41 L 32 42 L 33 42 L 33 41 z M 10 4 L 10 5 L 11 5 L 11 4 z M 44 6 L 44 7 L 45 7 L 45 6 z M 13 37 L 13 38 L 14 38 L 14 37 z M 25 11 L 25 12 L 26 12 L 26 11 z M 10 22 L 10 23 L 11 23 L 11 22 z M 25 20 L 25 21 L 26 21 L 26 20 z M 43 28 L 43 29 L 44 29 L 44 28 z M 24 24 L 24 25 L 25 25 L 25 24 z M 43 37 L 43 38 L 44 38 L 44 37 z M 24 33 L 24 34 L 25 34 L 25 33 z M 14 10 L 14 11 L 15 11 L 15 10 z M 27 29 L 27 30 L 28 30 L 28 29 z M 6 6 L 6 7 L 7 7 L 7 6 z M 36 7 L 36 8 L 37 8 L 37 7 z M 24 42 L 24 43 L 25 43 L 25 42 z M 27 38 L 27 39 L 28 39 L 28 38 z M 35 42 L 35 43 L 36 43 L 36 42 z M 8 34 L 8 35 L 9 35 L 9 34 z M 39 12 L 39 13 L 40 13 L 40 12 z M 36 25 L 36 26 L 37 26 L 37 25 z M 5 19 L 5 20 L 6 20 L 6 19 z M 39 21 L 39 22 L 40 22 L 40 21 z M 36 34 L 36 35 L 37 35 L 37 34 z M 20 17 L 20 18 L 21 18 L 21 17 z M 5 28 L 5 29 L 6 29 L 6 28 z M 28 30 L 28 31 L 29 31 L 29 30 z M 36 43 L 36 44 L 37 44 L 37 43 z M 20 26 L 20 27 L 21 27 L 21 26 z M 17 39 L 17 40 L 18 40 L 18 39 z M 40 4 L 40 5 L 41 5 L 41 4 z M 40 13 L 40 14 L 41 14 L 41 13 z M 20 44 L 20 45 L 21 45 L 21 44 z M 40 22 L 40 23 L 41 23 L 41 22 z M 13 5 L 13 6 L 14 6 L 14 5 z M 9 16 L 9 17 L 10 17 L 10 16 z M 32 18 L 32 19 L 33 19 L 33 18 z M 13 14 L 13 15 L 14 15 L 14 14 z M 21 27 L 21 28 L 22 28 L 22 27 z M 13 23 L 13 24 L 14 24 L 14 23 z M 9 34 L 9 35 L 10 35 L 10 34 z M 10 8 L 10 9 L 11 9 L 11 8 z M 44 10 L 44 11 L 45 11 L 45 10 z M 25 6 L 25 7 L 26 7 L 26 6 z M 31 40 L 31 41 L 32 41 L 32 40 z M 43 23 L 43 24 L 44 24 L 44 23 z M 4 41 L 4 42 L 5 42 L 5 41 z M 15 41 L 15 42 L 16 42 L 16 41 z M 35 19 L 35 20 L 36 20 L 36 19 z M 16 24 L 16 25 L 17 25 L 17 24 z M 24 37 L 24 38 L 25 38 L 25 37 z M 27 33 L 27 34 L 28 34 L 28 33 z M 16 42 L 16 43 L 17 43 L 17 42 z M 17 7 L 17 8 L 18 8 L 18 7 z M 27 42 L 27 43 L 28 43 L 28 42 z M 36 20 L 36 21 L 37 21 L 37 20 z M 8 38 L 8 39 L 9 39 L 9 38 z M 5 14 L 5 15 L 6 15 L 6 14 z M 17 16 L 17 17 L 18 17 L 18 16 z M 20 12 L 20 13 L 21 13 L 21 12 z M 17 25 L 17 26 L 18 26 L 18 25 z M 20 21 L 20 22 L 21 22 L 21 21 z M 5 32 L 5 33 L 6 33 L 6 32 z M 28 34 L 28 35 L 29 35 L 29 34 z M 39 34 L 39 35 L 40 35 L 40 34 z M 20 30 L 20 31 L 21 31 L 21 30 z M 40 8 L 40 9 L 41 9 L 41 8 z M 21 4 L 21 5 L 22 5 L 22 4 z M 32 4 L 32 5 L 33 5 L 33 4 z M 40 17 L 40 18 L 41 18 L 41 17 z M 42 36 L 42 37 L 43 37 L 43 36 z M 32 13 L 32 14 L 33 14 L 33 13 z M 13 9 L 13 10 L 14 10 L 14 9 z M 9 20 L 9 21 L 10 21 L 10 20 z M 13 18 L 13 19 L 14 19 L 14 18 z M 9 29 L 9 30 L 10 30 L 10 29 z M 31 26 L 31 27 L 32 27 L 32 26 z M 12 31 L 12 32 L 13 32 L 13 31 z M 23 31 L 23 32 L 24 32 L 24 31 z M 34 31 L 34 32 L 35 32 L 35 31 z M 31 44 L 31 45 L 32 45 L 32 44 z M 12 40 L 12 41 L 13 41 L 13 40 z M 23 40 L 23 41 L 24 41 L 24 40 z M 34 40 L 34 41 L 35 41 L 35 40 z M 43 18 L 43 19 L 44 19 L 44 18 z M 4 36 L 4 37 L 5 37 L 5 36 z M 24 14 L 24 15 L 25 15 L 25 14 z M 16 10 L 16 11 L 17 11 L 17 10 z M 35 23 L 35 24 L 36 24 L 36 23 z M 43 36 L 43 37 L 44 37 L 44 36 z M 16 19 L 16 20 L 17 20 L 17 19 z M 27 19 L 27 20 L 28 20 L 28 19 z M 24 32 L 24 33 L 25 33 L 25 32 z M 35 32 L 35 33 L 36 33 L 36 32 z M 24 41 L 24 42 L 25 42 L 25 41 z M 36 6 L 36 7 L 37 7 L 37 6 z M 8 24 L 8 25 L 9 25 L 9 24 z M 35 41 L 35 42 L 36 42 L 36 41 z M 36 15 L 36 16 L 37 16 L 37 15 z M 8 33 L 8 34 L 9 34 L 9 33 z M 8 42 L 8 43 L 9 43 L 9 42 z M 38 43 L 38 44 L 39 44 L 39 43 z M 17 20 L 17 21 L 18 21 L 18 20 z M 28 20 L 28 21 L 29 21 L 29 20 z M 39 20 L 39 21 L 40 21 L 40 20 z M 20 16 L 20 17 L 21 17 L 21 16 z M 5 27 L 5 28 L 6 28 L 6 27 z M 28 29 L 28 30 L 29 30 L 29 29 z M 39 29 L 39 30 L 40 30 L 40 29 z M 21 8 L 21 9 L 22 9 L 22 8 z M 32 8 L 32 9 L 33 9 L 33 8 z M 13 4 L 13 5 L 14 5 L 14 4 z M 42 40 L 42 41 L 43 41 L 43 40 z M 13 13 L 13 14 L 14 14 L 14 13 z M 12 17 L 12 18 L 13 18 L 13 17 z M 31 30 L 31 31 L 32 31 L 32 30 z M 12 26 L 12 27 L 13 27 L 13 26 z M 43 4 L 43 5 L 44 5 L 44 4 z M 23 35 L 23 36 L 24 36 L 24 35 z M 24 9 L 24 10 L 25 10 L 25 9 z M 43 22 L 43 23 L 44 23 L 44 22 z M 16 5 L 16 6 L 17 6 L 17 5 z M 4 40 L 4 41 L 5 41 L 5 40 z M 35 18 L 35 19 L 36 19 L 36 18 z M 15 40 L 15 41 L 16 41 L 16 40 z M 43 31 L 43 32 L 44 32 L 44 31 z M 27 14 L 27 15 L 28 15 L 28 14 z M 24 27 L 24 28 L 25 28 L 25 27 z M 8 10 L 8 11 L 9 11 L 9 10 z M 35 27 L 35 28 L 36 28 L 36 27 z M 8 19 L 8 20 L 9 20 L 9 19 z M 16 32 L 16 33 L 17 33 L 17 32 z M 27 32 L 27 33 L 28 33 L 28 32 z M 36 10 L 36 11 L 37 11 L 37 10 z M 8 28 L 8 29 L 9 29 L 9 28 z M 16 41 L 16 42 L 17 42 L 17 41 z M 5 4 L 5 5 L 6 5 L 6 4 z M 17 6 L 17 7 L 18 7 L 18 6 z M 38 38 L 38 39 L 39 39 L 39 38 z M 5 13 L 5 14 L 6 14 L 6 13 z M 39 15 L 39 16 L 40 16 L 40 15 z M 41 43 L 41 44 L 42 44 L 42 43 z M 20 20 L 20 21 L 21 21 L 21 20 z M 42 17 L 42 18 L 43 18 L 43 17 z M 19 24 L 19 25 L 20 25 L 20 24 z M 42 26 L 42 27 L 43 27 L 43 26 z M 19 33 L 19 34 L 20 34 L 20 33 z M 9 10 L 9 11 L 10 11 L 10 10 z M 11 29 L 11 30 L 12 30 L 12 29 z M 30 42 L 30 43 L 31 43 L 31 42 z M 42 44 L 42 45 L 43 45 L 43 44 z M 12 12 L 12 13 L 13 13 L 13 12 z M 23 12 L 23 13 L 24 13 L 24 12 z M 4 8 L 4 9 L 5 9 L 5 8 z M 34 21 L 34 22 L 35 22 L 35 21 z M 12 30 L 12 31 L 13 31 L 13 30 z M 34 30 L 34 31 L 35 31 L 35 30 z M 31 43 L 31 44 L 32 44 L 32 43 z M 24 4 L 24 5 L 25 5 L 25 4 z M 35 4 L 35 5 L 36 5 L 36 4 z M 43 17 L 43 18 L 44 18 L 44 17 z M 4 35 L 4 36 L 5 36 L 5 35 z M 24 13 L 24 14 L 25 14 L 25 13 z M 35 13 L 35 14 L 36 14 L 36 13 z M 4 44 L 4 45 L 5 45 L 5 44 z M 27 9 L 27 10 L 28 10 L 28 9 z M 8 14 L 8 15 L 9 15 L 9 14 z M 16 27 L 16 28 L 17 28 L 17 27 z M 8 23 L 8 24 L 9 24 L 9 23 z M 8 32 L 8 33 L 9 33 L 9 32 z M 28 10 L 28 11 L 29 11 L 29 10 z M 39 10 L 39 11 L 40 11 L 40 10 z M 41 29 L 41 30 L 42 30 L 42 29 z M 20 6 L 20 7 L 21 7 L 21 6 z M 26 40 L 26 41 L 27 41 L 27 40 z M 5 17 L 5 18 L 6 18 L 6 17 z M 38 42 L 38 43 L 39 43 L 39 42 z M 42 12 L 42 13 L 43 13 L 43 12 z M 19 19 L 19 20 L 20 20 L 20 19 z M 30 19 L 30 20 L 31 20 L 31 19 z M 42 21 L 42 22 L 43 22 L 43 21 z M 30 28 L 30 29 L 31 29 L 31 28 z M 30 37 L 30 38 L 31 38 L 31 37 z M 22 33 L 22 34 L 23 34 L 23 33 z M 34 7 L 34 8 L 35 8 L 35 7 z M 31 20 L 31 21 L 32 21 L 32 20 z M 12 16 L 12 17 L 13 17 L 13 16 z M 34 25 L 34 26 L 35 26 L 35 25 z M 4 21 L 4 22 L 5 22 L 5 21 z M 15 21 L 15 22 L 16 22 L 16 21 z M 23 34 L 23 35 L 24 35 L 24 34 z M 43 12 L 43 13 L 44 13 L 44 12 z M 24 8 L 24 9 L 25 9 L 25 8 z M 35 8 L 35 9 L 36 9 L 36 8 z M 4 39 L 4 40 L 5 40 L 5 39 z M 37 36 L 37 37 L 38 37 L 38 36 z M 16 13 L 16 14 L 17 14 L 17 13 z M 27 13 L 27 14 L 28 14 L 28 13 z M 29 41 L 29 42 L 30 42 L 30 41 z M 38 19 L 38 20 L 39 20 L 39 19 z M 41 24 L 41 25 L 42 25 L 42 24 z M 26 44 L 26 45 L 27 45 L 27 44 z M 7 40 L 7 41 L 8 41 L 8 40 z M 19 5 L 19 6 L 20 6 L 20 5 z M 42 7 L 42 8 L 43 8 L 43 7 z M 41 42 L 41 43 L 42 43 L 42 42 z M 30 14 L 30 15 L 31 15 L 31 14 z M 42 16 L 42 17 L 43 17 L 43 16 z M 22 10 L 22 11 L 23 11 L 23 10 z M 19 23 L 19 24 L 20 24 L 20 23 z M 22 19 L 22 20 L 23 20 L 23 19 z M 30 32 L 30 33 L 31 33 L 31 32 z M 11 28 L 11 29 L 12 29 L 12 28 z M 22 28 L 22 29 L 23 29 L 23 28 z M 30 41 L 30 42 L 31 42 L 31 41 z M 31 15 L 31 16 L 32 16 L 32 15 z M 12 11 L 12 12 L 13 12 L 13 11 z M 23 11 L 23 12 L 24 12 L 24 11 z M 4 7 L 4 8 L 5 8 L 5 7 z M 15 7 L 15 8 L 16 8 L 16 7 z M 23 20 L 23 21 L 24 21 L 24 20 z M 34 20 L 34 21 L 35 21 L 35 20 z M 4 16 L 4 17 L 5 17 L 5 16 z M 34 29 L 34 30 L 35 30 L 35 29 z M 4 25 L 4 26 L 5 26 L 5 25 z M 37 31 L 37 32 L 38 32 L 38 31 z M 29 27 L 29 28 L 30 28 L 30 27 z M 8 4 L 8 5 L 9 5 L 9 4 z M 38 5 L 38 6 L 39 6 L 39 5 z M 14 38 L 14 39 L 15 39 L 15 38 z M 37 40 L 37 41 L 38 41 L 38 40 z M 38 14 L 38 15 L 39 15 L 39 14 z M 41 10 L 41 11 L 42 11 L 42 10 z M 26 21 L 26 22 L 27 22 L 27 21 z M 38 23 L 38 24 L 39 24 L 39 23 z M 41 19 L 41 20 L 42 20 L 42 19 z M 38 32 L 38 33 L 39 33 L 39 32 z M 7 26 L 7 27 L 8 27 L 8 26 z M 18 26 L 18 27 L 19 27 L 19 26 z M 7 35 L 7 36 L 8 36 L 8 35 z M 7 44 L 7 45 L 8 45 L 8 44 z M 19 9 L 19 10 L 20 10 L 20 9 z M 30 9 L 30 10 L 31 10 L 31 9 z M 18 44 L 18 45 L 19 45 L 19 44 z M 42 20 L 42 21 L 43 21 L 43 20 z M 11 14 L 11 15 L 12 15 L 12 14 z M 19 27 L 19 28 L 20 28 L 20 27 z M 30 27 L 30 28 L 31 28 L 31 27 z M 22 23 L 22 24 L 23 24 L 23 23 z M 30 36 L 30 37 L 31 37 L 31 36 z M 11 32 L 11 33 L 12 33 L 12 32 z M 22 41 L 22 42 L 23 42 L 23 41 z M 12 6 L 12 7 L 13 7 L 13 6 z M 23 15 L 23 16 L 24 16 L 24 15 z M 34 15 L 34 16 L 35 16 L 35 15 z M 15 11 L 15 12 L 16 12 L 16 11 z M 15 20 L 15 21 L 16 21 L 16 20 z M 37 17 L 37 18 L 38 18 L 38 17 z M 37 26 L 37 27 L 38 27 L 38 26 z M 37 35 L 37 36 L 38 36 L 38 35 z M 6 29 L 6 30 L 7 30 L 7 29 z M 37 44 L 37 45 L 38 45 L 38 44 z M 38 9 L 38 10 L 39 10 L 39 9 z M 6 38 L 6 39 L 7 39 L 7 38 z M 7 12 L 7 13 L 8 13 L 8 12 z M 26 25 L 26 26 L 27 26 L 27 25 z M 38 27 L 38 28 L 39 28 L 39 27 z M 18 21 L 18 22 L 19 22 L 19 21 z M 41 23 L 41 24 L 42 24 L 42 23 z M 26 34 L 26 35 L 27 35 L 27 34 z M 7 30 L 7 31 L 8 31 L 8 30 z M 41 32 L 41 33 L 42 33 L 42 32 z M 26 43 L 26 44 L 27 44 L 27 43 z M 18 39 L 18 40 L 19 40 L 19 39 z M 19 4 L 19 5 L 20 5 L 20 4 z M 42 6 L 42 7 L 43 7 L 43 6 z M 30 13 L 30 14 L 31 14 L 31 13 z M 22 9 L 22 10 L 23 10 L 23 9 z M 19 22 L 19 23 L 20 23 L 20 22 z M 30 22 L 30 23 L 31 23 L 31 22 z M 11 18 L 11 19 L 12 19 L 12 18 z M 22 18 L 22 19 L 23 19 L 23 18 z M 11 27 L 11 28 L 12 28 L 12 27 z M 31 5 L 31 6 L 32 6 L 32 5 z M 44 24 L 44 25 L 45 25 L 45 24 z M 33 33 L 33 34 L 34 34 L 34 33 z M 44 33 L 44 34 L 45 34 L 45 33 z M 34 10 L 34 11 L 35 11 L 35 10 z M 4 6 L 4 7 L 5 7 L 5 6 z M 15 6 L 15 7 L 16 7 L 16 6 z M 10 40 L 10 41 L 11 41 L 11 40 z M 25 38 L 25 39 L 26 39 L 26 38 z M 37 12 L 37 13 L 38 13 L 38 12 z M 14 19 L 14 20 L 15 20 L 15 19 z M 14 28 L 14 29 L 15 29 L 15 28 z M 6 24 L 6 25 L 7 25 L 7 24 z M 29 26 L 29 27 L 30 27 L 30 26 z M 38 4 L 38 5 L 39 5 L 39 4 z M 29 35 L 29 36 L 30 36 L 30 35 z M 26 11 L 26 12 L 27 12 L 27 11 z M 38 13 L 38 14 L 39 14 L 39 13 z M 6 42 L 6 43 L 7 43 L 7 42 z M 7 7 L 7 8 L 8 8 L 8 7 z M 18 7 L 18 8 L 19 8 L 19 7 z M 26 20 L 26 21 L 27 21 L 27 20 z M 38 22 L 38 23 L 39 23 L 39 22 z M 7 16 L 7 17 L 8 17 L 8 16 z M 18 16 L 18 17 L 19 17 L 19 16 z M 41 18 L 41 19 L 42 19 L 42 18 z M 26 29 L 26 30 L 27 30 L 27 29 z M 7 25 L 7 26 L 8 26 L 8 25 z M 18 25 L 18 26 L 19 26 L 19 25 z M 41 27 L 41 28 L 42 28 L 42 27 z M 7 34 L 7 35 L 8 35 L 8 34 z M 40 31 L 40 32 L 41 32 L 41 31 z M 40 40 L 40 41 L 41 41 L 41 40 z M 30 17 L 30 18 L 31 18 L 31 17 z M 21 36 L 21 37 L 22 37 L 22 36 z M 22 13 L 22 14 L 23 14 L 23 13 z M 44 19 L 44 20 L 45 20 L 45 19 z M 10 26 L 10 27 L 11 27 L 11 26 z M 33 28 L 33 29 L 34 29 L 34 28 z M 44 37 L 44 38 L 45 38 L 45 37 z M 25 33 L 25 34 L 26 34 L 26 33 z M 10 44 L 10 45 L 11 45 L 11 44 z M 14 14 L 14 15 L 15 15 L 15 14 z M 37 16 L 37 17 L 38 17 L 38 16 z M 6 10 L 6 11 L 7 11 L 7 10 z M 29 12 L 29 13 L 30 13 L 30 12 z M 14 23 L 14 24 L 15 24 L 15 23 z M 37 25 L 37 26 L 38 26 L 38 25 z M 37 34 L 37 35 L 38 35 L 38 34 z M 6 28 L 6 29 L 7 29 L 7 28 z M 29 30 L 29 31 L 30 31 L 30 30 z M 26 6 L 26 7 L 27 7 L 27 6 z M 38 8 L 38 9 L 39 9 L 39 8 z M 41 4 L 41 5 L 42 5 L 42 4 z M 36 38 L 36 39 L 37 39 L 37 38 z M 26 15 L 26 16 L 27 16 L 27 15 z M 17 43 L 17 44 L 18 44 L 18 43 z M 7 20 L 7 21 L 8 21 L 8 20 z M 7 29 L 7 30 L 8 30 L 8 29 z M 40 26 L 40 27 L 41 27 L 41 26 z M 40 35 L 40 36 L 41 36 L 41 35 z M 40 44 L 40 45 L 41 45 L 41 44 z M 9 38 L 9 39 L 10 39 L 10 38 z M 44 5 L 44 6 L 45 6 L 45 5 z M 21 40 L 21 41 L 22 41 L 22 40 z M 13 36 L 13 37 L 14 37 L 14 36 z M 10 12 L 10 13 L 11 13 L 11 12 z M 33 23 L 33 24 L 34 24 L 34 23 z M 44 23 L 44 24 L 45 24 L 45 23 z M 25 19 L 25 20 L 26 20 L 26 19 z M 10 30 L 10 31 L 11 31 L 11 30 z M 33 32 L 33 33 L 34 33 L 34 32 z M 44 32 L 44 33 L 45 33 L 45 32 z M 10 39 L 10 40 L 11 40 L 11 39 z M 44 41 L 44 42 L 45 42 L 45 41 z M 25 37 L 25 38 L 26 38 L 26 37 z M 14 9 L 14 10 L 15 10 L 15 9 z M 14 18 L 14 19 L 15 19 L 15 18 z M 37 20 L 37 21 L 38 21 L 38 20 z M 6 23 L 6 24 L 7 24 L 7 23 z M 29 25 L 29 26 L 30 26 L 30 25 z M 6 32 L 6 33 L 7 33 L 7 32 z M 26 10 L 26 11 L 27 11 L 27 10 z M 6 41 L 6 42 L 7 42 L 7 41 z M 7 6 L 7 7 L 8 7 L 8 6 z M 41 8 L 41 9 L 42 9 L 42 8 z M 28 38 L 28 39 L 29 39 L 29 38 z M 40 21 L 40 22 L 41 22 L 41 21 z M 21 17 L 21 18 L 22 18 L 22 17 z M 9 24 L 9 25 L 10 25 L 10 24 z M 21 26 L 21 27 L 22 27 L 22 26 z M 40 39 L 40 40 L 41 40 L 41 39 z M 9 33 L 9 34 L 10 34 L 10 33 z M 21 35 L 21 36 L 22 36 L 22 35 z M 32 35 L 32 36 L 33 36 L 33 35 z M 21 44 L 21 45 L 22 45 L 22 44 z M 10 7 L 10 8 L 11 8 L 11 7 z M 33 9 L 33 10 L 34 10 L 34 9 z M 44 9 L 44 10 L 45 10 L 45 9 z M 13 40 L 13 41 L 14 41 L 14 40 z M 32 44 L 32 45 L 33 45 L 33 44 z M 10 16 L 10 17 L 11 17 L 11 16 z M 33 18 L 33 19 L 34 19 L 34 18 z M 10 34 L 10 35 L 11 35 L 11 34 z M 44 36 L 44 37 L 45 37 L 45 36 z M 25 32 L 25 33 L 26 33 L 26 32 z M 10 43 L 10 44 L 11 44 L 11 43 z M 14 13 L 14 14 L 15 14 L 15 13 z M 6 18 L 6 19 L 7 19 L 7 18 z M 36 19 L 36 20 L 37 20 L 37 19 z M 29 20 L 29 21 L 30 21 L 30 20 z M 17 24 L 17 25 L 18 25 L 18 24 z M 36 37 L 36 38 L 37 38 L 37 37 z M 17 33 L 17 34 L 18 34 L 18 33 z M 39 33 L 39 34 L 40 34 L 40 33 z M 18 10 L 18 11 L 19 11 L 19 10 z M 28 42 L 28 43 L 29 43 L 29 42 z M 40 7 L 40 8 L 41 8 L 41 7 z M 39 42 L 39 43 L 40 43 L 40 42 z M 20 38 L 20 39 L 21 39 L 21 38 z M 40 25 L 40 26 L 41 26 L 41 25 z M 13 8 L 13 9 L 14 9 L 14 8 z M 9 19 L 9 20 L 10 20 L 10 19 z M 32 21 L 32 22 L 33 22 L 33 21 z M 40 34 L 40 35 L 41 35 L 41 34 z M 13 17 L 13 18 L 14 18 L 14 17 z M 21 30 L 21 31 L 22 31 L 22 30 z M 40 43 L 40 44 L 41 44 L 41 43 z M 13 26 L 13 27 L 14 27 L 14 26 z M 44 4 L 44 5 L 45 5 L 45 4 z M 13 35 L 13 36 L 14 36 L 14 35 z M 44 13 L 44 14 L 45 14 L 45 13 z M 10 20 L 10 21 L 11 21 L 11 20 z M 33 22 L 33 23 L 34 23 L 34 22 z M 25 27 L 25 28 L 26 28 L 26 27 z M 24 31 L 24 32 L 25 32 L 25 31 z M 35 31 L 35 32 L 36 32 L 36 31 z M 14 8 L 14 9 L 15 9 L 15 8 z M 6 4 L 6 5 L 7 5 L 7 4 z M 29 6 L 29 7 L 30 7 L 30 6 z M 14 17 L 14 18 L 15 18 L 15 17 z M 27 36 L 27 37 L 28 37 L 28 36 z M 24 40 L 24 41 L 25 41 L 25 40 z M 6 13 L 6 14 L 7 14 L 7 13 z M 36 14 L 36 15 L 37 15 L 37 14 z M 6 22 L 6 23 L 7 23 L 7 22 z M 8 41 L 8 42 L 9 42 L 9 41 z M 28 19 L 28 20 L 29 20 L 29 19 z M 36 32 L 36 33 L 37 33 L 37 32 z M 5 26 L 5 27 L 6 27 L 6 26 z M 20 24 L 20 25 L 21 25 L 21 24 z M 20 33 L 20 34 L 21 34 L 21 33 z M 5 44 L 5 45 L 6 45 L 6 44 z M 21 16 L 21 17 L 22 17 L 22 16 z M 32 16 L 32 17 L 33 17 L 33 16 z M 40 29 L 40 30 L 41 30 L 41 29 z M 13 12 L 13 13 L 14 13 L 14 12 z M 9 23 L 9 24 L 10 24 L 10 23 z M 10 6 L 10 7 L 11 7 L 11 6 z M 44 8 L 44 9 L 45 9 L 45 8 z M 25 4 L 25 5 L 26 5 L 26 4 z M 31 38 L 31 39 L 32 39 L 32 38 z M 44 17 L 44 18 L 45 18 L 45 17 z M 10 24 L 10 25 L 11 25 L 11 24 z M 23 43 L 23 44 L 24 44 L 24 43 z M 43 21 L 43 22 L 44 22 L 44 21 z M 16 31 L 16 32 L 17 32 L 17 31 z M 6 8 L 6 9 L 7 9 L 7 8 z M 36 9 L 36 10 L 37 10 L 37 9 z M 8 27 L 8 28 L 9 28 L 9 27 z M 16 40 L 16 41 L 17 41 L 17 40 z M 17 5 L 17 6 L 18 6 L 18 5 z M 28 5 L 28 6 L 29 6 L 29 5 z M 27 40 L 27 41 L 28 41 L 28 40 z M 24 44 L 24 45 L 25 45 L 25 44 z M 35 44 L 35 45 L 36 45 L 36 44 z M 28 14 L 28 15 L 29 15 L 29 14 z M 39 14 L 39 15 L 40 15 L 40 14 z M 36 27 L 36 28 L 37 28 L 37 27 z M 20 10 L 20 11 L 21 11 L 21 10 z M 28 23 L 28 24 L 29 24 L 29 23 z M 36 36 L 36 37 L 37 37 L 37 36 z M 20 19 L 20 20 L 21 20 L 21 19 z M 5 30 L 5 31 L 6 31 L 6 30 z M 17 32 L 17 33 L 18 33 L 18 32 z M 17 41 L 17 42 L 18 42 L 18 41 z M 40 6 L 40 7 L 41 7 L 41 6 z M 39 41 L 39 42 L 40 42 L 40 41 z M 21 11 L 21 12 L 22 12 L 22 11 z M 32 11 L 32 12 L 33 12 L 33 11 z M 21 20 L 21 21 L 22 21 L 22 20 z M 9 27 L 9 28 L 10 28 L 10 27 z M 9 36 L 9 37 L 10 37 L 10 36 z M 31 33 L 31 34 L 32 34 L 32 33 z M 10 10 L 10 11 L 11 11 L 11 10 z M 31 42 L 31 43 L 32 43 L 32 42 z M 34 38 L 34 39 L 35 39 L 35 38 z M 4 34 L 4 35 L 5 35 L 5 34 z M 24 12 L 24 13 L 25 13 L 25 12 z M 35 12 L 35 13 L 36 13 L 36 12 z M 43 25 L 43 26 L 44 26 L 44 25 z M 4 43 L 4 44 L 5 44 L 5 43 z M 35 21 L 35 22 L 36 22 L 36 21 z M 24 30 L 24 31 L 25 31 L 25 30 z M 43 43 L 43 44 L 44 44 L 44 43 z M 16 26 L 16 27 L 17 27 L 17 26 z M 27 26 L 27 27 L 28 27 L 28 26 z M 35 39 L 35 40 L 36 40 L 36 39 z M 36 4 L 36 5 L 37 5 L 37 4 z M 16 35 L 16 36 L 17 36 L 17 35 z M 27 35 L 27 36 L 28 36 L 28 35 z M 36 13 L 36 14 L 37 14 L 37 13 z M 16 44 L 16 45 L 17 45 L 17 44 z M 27 44 L 27 45 L 28 45 L 28 44 z M 36 22 L 36 23 L 37 23 L 37 22 z M 8 40 L 8 41 L 9 41 L 9 40 z M 5 16 L 5 17 L 6 17 L 6 16 z M 17 18 L 17 19 L 18 19 L 18 18 z M 39 18 L 39 19 L 40 19 L 40 18 z M 36 31 L 36 32 L 37 32 L 37 31 z M 5 25 L 5 26 L 6 26 L 6 25 z M 28 27 L 28 28 L 29 28 L 29 27 z M 39 36 L 39 37 L 40 37 L 40 36 z M 40 10 L 40 11 L 41 11 L 41 10 z M 9 4 L 9 5 L 10 5 L 10 4 z M 21 6 L 21 7 L 22 7 L 22 6 z M 32 6 L 32 7 L 33 7 L 33 6 z M 13 11 L 13 12 L 14 12 L 14 11 z M 31 19 L 31 20 L 32 20 L 32 19 z M 31 28 L 31 29 L 32 29 L 32 28 z M 10 5 L 10 6 L 11 6 L 11 5 z M 12 24 L 12 25 L 13 25 L 13 24 z M 23 24 L 23 25 L 24 25 L 24 24 z M 4 29 L 4 30 L 5 30 L 5 29 z M 12 42 L 12 43 L 13 43 L 13 42 z M 24 7 L 24 8 L 25 8 L 25 7 z M 23 42 L 23 43 L 24 43 L 24 42 z M 4 38 L 4 39 L 5 39 L 5 38 z M 15 38 L 15 39 L 16 39 L 16 38 z M 24 16 L 24 17 L 25 17 L 25 16 z M 35 16 L 35 17 L 36 17 L 36 16 z M 43 29 L 43 30 L 44 30 L 44 29 z M 27 12 L 27 13 L 28 13 L 28 12 z M 24 25 L 24 26 L 25 26 L 25 25 z M 8 8 L 8 9 L 9 9 L 9 8 z M 35 25 L 35 26 L 36 26 L 36 25 z M 16 21 L 16 22 L 17 22 L 17 21 z M 27 21 L 27 22 L 28 22 L 28 21 z M 19 16 L 19 17 L 20 17 L 20 16 z M 16 30 L 16 31 L 17 31 L 17 30 z M 27 30 L 27 31 L 28 31 L 28 30 z M 36 8 L 36 9 L 37 9 L 37 8 z M 27 39 L 27 40 L 28 40 L 28 39 z M 28 4 L 28 5 L 29 5 L 29 4 z M 39 4 L 39 5 L 40 5 L 40 4 z M 36 17 L 36 18 L 37 18 L 37 17 z M 38 36 L 38 37 L 39 37 L 39 36 z M 28 13 L 28 14 L 29 14 L 29 13 z M 39 13 L 39 14 L 40 14 L 40 13 z M 8 44 L 8 45 L 9 45 L 9 44 z M 5 20 L 5 21 L 6 21 L 6 20 z M 20 18 L 20 19 L 21 19 L 21 18 z M 5 29 L 5 30 L 6 30 L 6 29 z M 42 24 L 42 25 L 43 25 L 43 24 z M 19 31 L 19 32 L 20 32 L 20 31 z M 30 31 L 30 32 L 31 32 L 31 31 z M 42 33 L 42 34 L 43 34 L 43 33 z M 13 6 L 13 7 L 14 7 L 14 6 z M 30 40 L 30 41 L 31 41 L 31 40 z M 42 42 L 42 43 L 43 43 L 43 42 z M 11 36 L 11 37 L 12 37 L 12 36 z M 31 14 L 31 15 L 32 15 L 32 14 z M 12 10 L 12 11 L 13 11 L 13 10 z M 31 23 L 31 24 L 32 24 L 32 23 z M 31 32 L 31 33 L 32 33 L 32 32 z M 15 15 L 15 16 L 16 16 L 16 15 z M 12 28 L 12 29 L 13 29 L 13 28 z M 12 37 L 12 38 L 13 38 L 13 37 z M 34 37 L 34 38 L 35 38 L 35 37 z M 4 33 L 4 34 L 5 34 L 5 33 z M 4 42 L 4 43 L 5 43 L 5 42 z M 16 7 L 16 8 L 17 8 L 17 7 z M 27 7 L 27 8 L 28 8 L 28 7 z M 24 20 L 24 21 L 25 21 L 25 20 z M 35 20 L 35 21 L 36 21 L 36 20 z M 15 42 L 15 43 L 16 43 L 16 42 z M 16 16 L 16 17 L 17 17 L 17 16 z M 27 16 L 27 17 L 28 17 L 28 16 z M 24 29 L 24 30 L 25 30 L 25 29 z M 8 12 L 8 13 L 9 13 L 9 12 z M 35 29 L 35 30 L 36 30 L 36 29 z M 16 25 L 16 26 L 17 26 L 17 25 z M 27 25 L 27 26 L 28 26 L 28 25 z M 27 34 L 27 35 L 28 35 L 28 34 z M 8 30 L 8 31 L 9 31 L 9 30 z M 38 31 L 38 32 L 39 32 L 39 31 z M 38 40 L 38 41 L 39 41 L 39 40 z M 5 15 L 5 16 L 6 16 L 6 15 z M 39 17 L 39 18 L 40 18 L 40 17 z M 41 36 L 41 37 L 42 37 L 42 36 z M 20 13 L 20 14 L 21 14 L 21 13 z M 5 24 L 5 25 L 6 25 L 6 24 z M 18 43 L 18 44 L 19 44 L 19 43 z M 42 10 L 42 11 L 43 11 L 43 10 z M 19 26 L 19 27 L 20 27 L 20 26 z M 30 26 L 30 27 L 31 27 L 31 26 z M 42 28 L 42 29 L 43 29 L 43 28 z M 11 22 L 11 23 L 12 23 L 12 22 z M 19 35 L 19 36 L 20 36 L 20 35 z M 22 31 L 22 32 L 23 32 L 23 31 z M 19 44 L 19 45 L 20 45 L 20 44 z M 31 9 L 31 10 L 32 10 L 32 9 z M 12 5 L 12 6 L 13 6 L 13 5 z M 23 5 L 23 6 L 24 6 L 24 5 z M 34 5 L 34 6 L 35 6 L 35 5 z M 31 18 L 31 19 L 32 19 L 32 18 z M 12 14 L 12 15 L 13 15 L 13 14 z M 23 14 L 23 15 L 24 15 L 24 14 z M 4 10 L 4 11 L 5 11 L 5 10 z M 12 23 L 12 24 L 13 24 L 13 23 z M 34 23 L 34 24 L 35 24 L 35 23 z M 4 19 L 4 20 L 5 20 L 5 19 z M 15 19 L 15 20 L 16 20 L 16 19 z M 12 32 L 12 33 L 13 33 L 13 32 z M 43 10 L 43 11 L 44 11 L 44 10 z M 15 28 L 15 29 L 16 29 L 16 28 z M 12 41 L 12 42 L 13 42 L 13 41 z M 23 41 L 23 42 L 24 42 L 24 41 z M 24 15 L 24 16 L 25 16 L 25 15 z M 35 15 L 35 16 L 36 16 L 36 15 z M 8 7 L 8 8 L 9 8 L 9 7 z M 16 20 L 16 21 L 17 21 L 17 20 z M 8 16 L 8 17 L 9 17 L 9 16 z M 8 25 L 8 26 L 9 26 L 9 25 z M 38 26 L 38 27 L 39 27 L 39 26 z M 41 22 L 41 23 L 42 23 L 42 22 z M 26 33 L 26 34 L 27 34 L 27 33 z M 38 35 L 38 36 L 39 36 L 39 35 z M 5 10 L 5 11 L 6 11 L 6 10 z M 41 31 L 41 32 L 42 32 L 42 31 z M 20 8 L 20 9 L 21 9 L 21 8 z M 38 44 L 38 45 L 39 45 L 39 44 z M 7 38 L 7 39 L 8 39 L 8 38 z M 18 38 L 18 39 L 19 39 L 19 38 z M 41 40 L 41 41 L 42 41 L 42 40 z M 30 12 L 30 13 L 31 13 L 31 12 z M 30 21 L 30 22 L 31 22 L 31 21 z M 19 30 L 19 31 L 20 31 L 20 30 z M 30 30 L 30 31 L 31 31 L 31 30 z M 42 32 L 42 33 L 43 33 L 43 32 z M 22 26 L 22 27 L 23 27 L 23 26 z M 30 39 L 30 40 L 31 40 L 31 39 z M 42 41 L 42 42 L 43 42 L 43 41 z M 11 35 L 11 36 L 12 36 L 12 35 z M 22 35 L 22 36 L 23 36 L 23 35 z M 12 9 L 12 10 L 13 10 L 13 9 z M 34 9 L 34 10 L 35 10 L 35 9 z M 31 22 L 31 23 L 32 23 L 32 22 z M 4 5 L 4 6 L 5 6 L 5 5 z M 12 18 L 12 19 L 13 19 L 13 18 z M 23 18 L 23 19 L 24 19 L 24 18 z M 34 18 L 34 19 L 35 19 L 35 18 z M 4 14 L 4 15 L 5 15 L 5 14 z M 31 31 L 31 32 L 32 32 L 32 31 z M 34 27 L 34 28 L 35 28 L 35 27 z M 4 23 L 4 24 L 5 24 L 5 23 z M 24 10 L 24 11 L 25 11 L 25 10 z M 37 29 L 37 30 L 38 30 L 38 29 z M 16 6 L 16 7 L 17 7 L 17 6 z M 27 6 L 27 7 L 28 7 L 28 6 z M 27 15 L 27 16 L 28 16 L 28 15 z M 38 12 L 38 13 L 39 13 L 39 12 z M 29 43 L 29 44 L 30 44 L 30 43 z M 38 21 L 38 22 L 39 22 L 39 21 z M 41 17 L 41 18 L 42 18 L 42 17 z M 38 30 L 38 31 L 39 31 L 39 30 z M 41 26 L 41 27 L 42 27 L 42 26 z M 41 35 L 41 36 L 42 36 L 42 35 z M 7 42 L 7 43 L 8 43 L 8 42 z M 30 7 L 30 8 L 31 8 L 31 7 z M 41 44 L 41 45 L 42 45 L 42 44 z M 30 16 L 30 17 L 31 17 L 31 16 z"
    id="qr-path"
    fill="#000000"
    fill-opacity="1"
    fill-rule="nonzero"
    stroke="none"
  />
</svg>
